<?xml version="1.0" encoding="UTF-8" standalone="no"?>
<svg
   xmlns:dc="http://purl.org/dc/elements/1.1/"
   xmlns:cc="http://creativecommons.org/ns#"
   xmlns:rdf="http://www.w3.org/1999/02/22-rdf-syntax-ns#"
   xmlns:svg="http://www.w3.org/2000/svg"
   xmlns="http://www.w3.org/2000/svg"
   xmlns:sodipodi="http://sodipodi.sourceforge.net/DTD/sodipodi-0.dtd"
   xmlns:inkscape="http://www.inkscape.org/namespaces/inkscape"
   sodipodi:docname="altar.svg"
   inkscape:version="1.0beta1 (1a794d5274, 2019-11-01)"
   id="svg1639"
   version="1.1"
   viewBox="0 0 210 297"
   height="297mm"
   width="210mm">
  <defs
     id="defs1633" />
  <sodipodi:namedview
     inkscape:window-maximized="1"
     inkscape:window-y="33"
     inkscape:window-x="0"
     inkscape:window-height="979"
     inkscape:window-width="1920"
     showgrid="false"
     inkscape:document-rotation="0"
     inkscape:current-layer="layer1"
     inkscape:document-units="mm"
     inkscape:cy="560"
     inkscape:cx="400"
     inkscape:zoom="0.90509668"
     inkscape:pageshadow="2"
     inkscape:pageopacity="0.0"
     borderopacity="1.0"
     bordercolor="#666666"
     pagecolor="#ffffff"
     id="base" />
  <metadata
     id="metadata1636">
    <rdf:RDF>
      <cc:Work
         rdf:about="">
        <dc:format>image/svg+xml</dc:format>
        <dc:type
           rdf:resource="http://purl.org/dc/dcmitype/StillImage" />
        <dc:title></dc:title>
      </cc:Work>
    </rdf:RDF>
  </metadata>
  <g
     id="layer1"
     inkscape:groupmode="layer"
     inkscape:label="Layer 1">
    <path
       inkscape:connector-curvature="0"
       d="m 51.480845,243.38981 c -9.20284,-1.10961 -14.689084,-12.61821 -9.328588,-20.36533 3.344767,-6.10218 10.759936,-6.75338 16.963998,-6.35911 7.68112,-0.0847 15.362528,-0.14043 23.043792,-0.21053 -7.676804,-6.87527 -18.035444,-12.92297 -19.210974,-24.16148 -1.170653,-7.26739 1.513584,-14.31506 5.713918,-20.13772 10.583421,-16.78663 20.669825,-33.91032 31.654369,-50.43114 4.94469,-6.77136 15.27092,-6.04849 20.9313,-0.59279 10.61272,7.40078 14.37234,20.28913 20.55275,31.00797 7.06392,-4.00152 12.99939,-10.06082 20.5157,-13.15586 8.15164,-2.27979 16.0027,7.19503 12.09355,14.8064 -4.35658,6.4702 -12.05161,9.80058 -17.99926,14.70315 -5.76081,3.52344 -10.72889,9.0842 -17.38104,10.67694 -8.61763,1.4644 -12.12066,-7.71849 -14.96797,-13.99598 -1.50295,-5.2875 -3.57718,-5.72014 -5.35891,-0.24323 -5.76441,10.8379 -11.60548,21.63476 -17.40113,32.45595 9.5372,8.30531 19.62393,16.02516 28.75145,24.77517 6.01216,7.69833 0.59793,20.30509 -9.10083,21.19238 -23.152129,0.34965 -46.318176,0.16695 -69.472125,0.0352 z M 140.29598,120.55788 c -11.65234,-2.55088 -18.35945,-16.8378 -12.75541,-27.398871 4.95548,-11.136745 20.98562,-14.577212 30.01968,-6.314389 9.79058,7.76219 8.75631,24.72813 -2.01777,31.13885 -4.41276,3.01841 -10.09622,3.69267 -15.2465,2.57441 z"
       style="fill:#000000;stroke-width:0.264583"
       id="path2216" />
  </g>
</svg>
