<?xml version="1.0" encoding="UTF-8" standalone="no"?>
<!-- Created with Inkscape (http://www.inkscape.org/) -->

<svg
   xmlns:dc="http://purl.org/dc/elements/1.1/"
   xmlns:cc="http://creativecommons.org/ns#"
   xmlns:rdf="http://www.w3.org/1999/02/22-rdf-syntax-ns#"
   xmlns:svg="http://www.w3.org/2000/svg"
   xmlns="http://www.w3.org/2000/svg"
   xmlns:sodipodi="http://sodipodi.sourceforge.net/DTD/sodipodi-0.dtd"
   xmlns:inkscape="http://www.inkscape.org/namespaces/inkscape"
   width="210mm"
   height="297mm"
   viewBox="0 0 210 297"
   version="1.1"
   id="svg2128"
   inkscape:version="0.92.4 5da689c313, 2019-01-14"
   sodipodi:docname="bone.svg">
  <defs
     id="defs2122" />
  <sodipodi:namedview
     id="base"
     pagecolor="#ffffff"
     bordercolor="#666666"
     borderopacity="1.0"
     inkscape:pageopacity="0.0"
     inkscape:pageshadow="2"
     inkscape:zoom="1.4"
     inkscape:cx="332.14286"
     inkscape:cy="622.85714"
     inkscape:document-units="mm"
     inkscape:current-layer="layer1"
     showgrid="false"
     inkscape:window-width="1920"
     inkscape:window-height="979"
     inkscape:window-x="0"
     inkscape:window-y="33"
     inkscape:window-maximized="1" />
  <metadata
     id="metadata2125">
    <rdf:RDF>
      <cc:Work
         rdf:about="">
        <dc:format>image/svg+xml</dc:format>
        <dc:type
           rdf:resource="http://purl.org/dc/dcmitype/StillImage" />
        <dc:title></dc:title>
      </cc:Work>
    </rdf:RDF>
  </metadata>
  <g
     inkscape:label="Layer 1"
     inkscape:groupmode="layer"
     id="layer1">
    <g
       id="g2717"
       transform="matrix(-1,0,0,1,201.37906,0)">
      <path
         inkscape:connector-curvature="0"
         id="path2709"
         d="m 49.149177,171.67276 c -2.756708,-0.84893 -5.238954,-2.83514 -6.078075,-5.68151 -1.033837,-2.80852 -2.008322,-5.71983 -4.110744,-7.94548 -1.77982,-1.80791 -2.230594,-4.8522 -0.343993,-6.74827 2.376585,-2.68026 6.235164,-3.39377 9.635149,-2.73335 7.161065,0.97001 14.000972,-2.02258 20.251924,-5.1573 6.032736,-2.99811 11.842323,-6.41619 17.784801,-9.58364 3.762494,1.49873 7.226987,3.68807 10.776028,5.63631 -11.657439,6.89779 -22.987855,14.38496 -33.710554,22.66716 -3.637692,2.50763 -5.04785,7.2061 -8.909357,9.42108 -1.646246,0.73256 -3.597957,0.60418 -5.295179,0.125 z"
         style="fill:#000000;stroke-width:0.26458332" />
      <path
         inkscape:connector-curvature="0"
         id="path2707"
         d="m 147.44188,171.77484 c -4.91451,-3.18315 -7.13756,-9.25859 -12.47635,-12.08915 -20.18279,-14.96749 -42.092772,-27.49566 -64.576362,-38.64315 -5.89554,-2.91087 -12.539219,-2.45253 -18.850192,-1.67497 -5.650378,0.85753 -11.761277,-2.26304 -13.367932,-7.95885 -2.831598,-4.63215 1.522828,-11.600569 7.016325,-9.25092 6.646158,0.80675 4.068254,-10.032117 10.495992,-9.954047 6.987608,-0.479878 9.596672,6.916214 13.504474,11.179087 7.447196,9.08237 18.401691,13.92413 28.144174,20.03804 13.449291,7.70141 26.729521,15.7858 40.741671,22.43375 5.52313,2.53431 11.68002,3.34324 17.68612,2.54523 5.70804,-0.87467 11.5393,6.14668 6.05971,10.4979 -3.23237,4.43636 -3.49927,11.99808 -10.20845,12.94314 -1.36614,0.22471 -2.83171,0.39893 -4.16918,-0.0661 z"
         style="fill:#000000;stroke-width:0.26458332" />
      <path
         inkscape:connector-curvature="0"
         id="path2703"
         d="m 109.60647,126.31217 c -1.29743,-1.0608 -4.75782,-2.07215 -4.4642,-3.3741 6.73567,-4.31905 13.82464,-8.10792 20.29483,-12.82777 5.08498,-4.00142 8.97858,-9.23051 12.66967,-14.479268 2.39351,-2.835009 6.72608,-4.435201 10.2055,-2.740874 3.01692,2.17684 2.14303,7.00912 5.4094,8.947492 2.55976,1.23006 5.68619,-1.35194 7.9197,0.89085 2.46834,1.7338 2.98203,5.03999 1.96316,7.73261 -1.07323,4.38292 -4.65782,8.22185 -9.26302,8.76582 -5.46445,0.81491 -10.91843,-1.31285 -16.37016,-0.20009 -6.27447,0.9154 -11.6803,4.51573 -17.27167,7.24956 -2.09399,0.77427 -4.16969,2.82096 -6.31969,2.69199 -1.60864,-0.85343 -3.19095,-1.75568 -4.77352,-2.65622 z"
         style="fill:#000000;stroke-width:0.26458332" />
    </g>
  </g>
</svg>
