<?xml version="1.0" encoding="UTF-8" standalone="no"?>
<!-- Created with Inkscape (http://www.inkscape.org/) -->

<svg
   xmlns:dc="http://purl.org/dc/elements/1.1/"
   xmlns:cc="http://creativecommons.org/ns#"
   xmlns:rdf="http://www.w3.org/1999/02/22-rdf-syntax-ns#"
   xmlns:svg="http://www.w3.org/2000/svg"
   xmlns="http://www.w3.org/2000/svg"
   xmlns:sodipodi="http://sodipodi.sourceforge.net/DTD/sodipodi-0.dtd"
   xmlns:inkscape="http://www.inkscape.org/namespaces/inkscape"
   width="210mm"
   height="297mm"
   viewBox="0 0 210 297"
   version="1.1"
   id="svg8"
   inkscape:version="0.92.4 5da689c313, 2019-01-14"
   sodipodi:docname="danger.svg">
  <defs
     id="defs2" />
  <sodipodi:namedview
     id="base"
     pagecolor="#ffffff"
     bordercolor="#666666"
     borderopacity="1.0"
     inkscape:pageopacity="0.0"
     inkscape:pageshadow="2"
     inkscape:zoom="3.959798"
     inkscape:cx="438.40449"
     inkscape:cy="639.67567"
     inkscape:document-units="mm"
     inkscape:current-layer="layer1"
     showgrid="false"
     inkscape:window-width="3840"
     inkscape:window-height="2060"
     inkscape:window-x="0"
     inkscape:window-y="36"
     inkscape:window-maximized="1"
     inkscape:snap-grids="false"
     inkscape:snap-to-guides="false" />
  <metadata
     id="metadata5">
    <rdf:RDF>
      <cc:Work
         rdf:about="">
        <dc:format>image/svg+xml</dc:format>
        <dc:type
           rdf:resource="http://purl.org/dc/dcmitype/StillImage" />
        <dc:title></dc:title>
      </cc:Work>
    </rdf:RDF>
  </metadata>
  <g
     inkscape:label="Layer 1"
     inkscape:groupmode="layer"
     id="layer1">
    <path
       style="fill:#000000;stroke-width:0.26458332"
       d="m 65.295393,181.25984 c -5.386975,-1.40834 -7.816074,-7.42348 -4.872332,-12.06528 0.968194,-1.52668 0.983725,-1.46236 -0.353188,-1.46261 -5.033904,-0.001 -8.793067,-6.33959 -6.620995,-11.16425 2.701044,-5.99961 11.448086,-6.24035 14.394799,-0.39617 0.307708,0.61027 0.585354,1.14018 0.61699,1.17758 0.03164,0.0374 4.392549,-1.96089 9.690915,-4.44063 5.298368,-2.47975 9.880351,-4.57183 10.182191,-4.64907 0.82477,-0.21106 1.20819,0.46794 1.43597,2.543 0.39885,3.63343 1.99429,4.91225 8.13288,6.51892 0.79982,0.20934 0.0262,0.61099 -11.55246,5.99755 l -12.409697,5.77318 0.549087,1.23828 c 2.538782,5.72535 -3.165028,12.50572 -9.19416,10.9295 z"
       id="path1538" />
    <path
       style="fill:#000000;stroke-width:0.26458332"
       d="m 147.31622,181.13694 c -4.72912,-1.56963 -7.12363,-6.52116 -5.22544,-10.8055 l 0.54814,-1.23717 -12.34572,-5.7432 c -6.79015,-3.15876 -12.38494,-5.77656 -12.43286,-5.81732 -0.0479,-0.0408 0.60693,-0.21733 1.45521,-0.39238 4.69473,-0.96876 7.49546,-3.32832 7.49546,-6.31478 0,-1.28404 0.38655,-2.3709 0.91541,-2.57384 0.21681,-0.0832 4.77274,1.89603 10.12428,4.39828 5.35156,2.50225 9.85862,4.60237 10.01569,4.66695 0.15708,0.0646 0.50593,-0.37122 0.77523,-0.96841 2.68783,-5.96054 11.49939,-5.87379 14.42151,0.14198 2.31617,4.76829 -1.45623,11.23945 -6.55264,11.2404 -1.33691,2.5e-4 -1.32138,-0.0641 -0.35319,1.46261 3.24022,5.10929 -0.10132,11.73192 -6.1424,12.1737 -0.98148,0.0718 -2.06544,-0.0211 -2.69868,-0.23132 z"
       id="path1536" />
    <path
       id="path1528"
       style="fill:#000000;stroke-width:0.26458332"
       d="m 128.16568,130.5275 c 1.53372,-0.88574 1.88055,-1.9171 1.72471,-5.12868 -0.27801,-5.7294 -2.36249,-9.7332 -5.5233,-10.60902 -3.0347,-0.84088 -8.6856,0.81011 -10.27295,3.00138 -3.21734,4.44142 -0.13445,12.19709 5.23515,13.17017 2.33451,0.42306 7.81885,0.15379 8.83639,-0.43385 z m -31.252577,0.41036 c 4.253147,-0.68701 6.736877,-4.04248 6.743927,-9.11091 0.006,-4.13114 -2.23089,-6.20606 -7.585217,-7.03681 -4.6137,-0.71584 -7.05744,0.90649 -8.57087,5.68996 -1.38872,4.3893 -1.14653,8.72714 0.54929,9.83829 1.33162,0.87251 5.49489,1.1635 8.86287,0.61947 z m 17.065617,7.29334 c 0,-2.31262 -3.7302,-10.63095 -5.35448,-10.7811 -1.62429,-0.15015 -6.13258,8.18587 -5.95649,10.76652 1.98747,1.40682 9.36845,1.75952 11.31097,0.0146 z m -11.24479,15.84872 c -6.643117,-0.58106 -9.260417,-1.60342 -9.260417,-3.61732 0,-3.53892 -1.57934,-5.26303 -6.93242,-7.56791 -5.113816,-2.20186 -5.750338,-2.75105 -6.018469,-5.19274 -0.137202,-1.2494 -0.445048,-2.28458 -0.946026,-3.18116 -0.948044,-1.69668 -0.819046,-2.22501 1.056463,-4.32693 1.908916,-2.13936 1.90319,-2.09247 0.962022,-7.87916 -2.560947,-15.74574 -1.974887,-22.741903 2.445634,-29.195053 9.540976,-13.928088 38.426813,-14.165951 48.196143,-0.396875 4.72688,6.662165 5.37483,13.644228 2.74371,29.565308 -0.95025,5.75003 -0.94921,5.75853 0.96673,7.90578 1.87551,2.10192 2.00451,2.63025 1.05646,4.32693 -0.50097,0.89658 -0.80882,1.93176 -0.94602,3.18116 -0.26743,2.43525 -0.85257,2.94031 -5.99099,5.17092 -5.38226,2.33645 -6.9599,4.054 -6.9599,7.5771 0,2.49018 -3.69987,3.49978 -13.36146,3.646 -3.20146,0.0485 -6.35662,0.0412 -7.01146,-0.0161 z" />
    <path
       style="fill:#000000;stroke-width:0.26458332"
       d="m 59.116517,139.93668 c -8.69434,-1.75192 -8.098737,-14.57897 0.73134,-15.75033 l 1.361391,-0.18059 -0.457267,-0.69253 c -2.878251,-4.3591 -1.650769,-9.71585 2.736369,-11.94158 6.498262,-3.29676 13.890953,3.5703 10.964852,10.18523 l -0.541274,1.22365 2.174023,1.04994 c 2.892506,1.39692 3.15841,2.25148 1.356762,4.36033 -2.370672,2.7749 -2.752958,4.79911 -1.412825,7.48095 1.455923,2.91356 1.235202,2.9698 -3.294285,0.83927 -2.165281,-1.01848 -4.029895,-1.85178 -4.143586,-1.85178 -0.113691,0 -0.465429,0.53444 -0.78164,1.18765 -1.420541,2.93444 -5.321176,4.76939 -8.69386,4.08979 z"
       id="path1526" />
    <path
       style="fill:#000000;stroke-width:0.26458332"
       d="m 153.82004,139.80308 c -2.43146,-0.66707 -4.37975,-2.25955 -5.21755,-4.2647 -0.47151,-1.12848 -0.20953,-1.18177 -4.77282,0.97097 -2.25592,1.06424 -3.4392,1.58223 -3.87676,1.47046 -0.43756,-0.11176 -0.1294,-0.85328 0.59756,-2.30806 1.34391,-2.6894 0.95889,-4.70484 -1.43383,-7.50554 -1.82325,-2.13414 -1.57929,-2.91833 1.34433,-4.32118 l 2.20939,-1.06015 -0.56006,-1.26611 c -2.30802,-5.21766 1.82231,-11.14571 7.58717,-10.8895 6.64659,0.2954 9.8859,6.99705 6.13091,12.68396 l -0.45727,0.69253 1.3614,0.18059 c 6.68574,0.8869 9.44462,9.16014 4.55699,13.6654 -2.14435,1.97659 -4.82491,2.67686 -7.46946,1.95133 z"
       id="path826" />
  </g>
</svg>
