<?xml version="1.0" encoding="UTF-8" standalone="no"?>
<!-- Created with Inkscape (http://www.inkscape.org/) -->

<svg
   xmlns:dc="http://purl.org/dc/elements/1.1/"
   xmlns:cc="http://creativecommons.org/ns#"
   xmlns:rdf="http://www.w3.org/1999/02/22-rdf-syntax-ns#"
   xmlns:svg="http://www.w3.org/2000/svg"
   xmlns="http://www.w3.org/2000/svg"
   xmlns:sodipodi="http://sodipodi.sourceforge.net/DTD/sodipodi-0.dtd"
   xmlns:inkscape="http://www.inkscape.org/namespaces/inkscape"
   width="210mm"
   height="297mm"
   viewBox="0 0 210 297"
   version="1.1"
   id="svg8"
   inkscape:version="0.92.4 5da689c313, 2019-01-14"
   sodipodi:docname="danger.svg">
  <defs
     id="defs2" />
  <sodipodi:namedview
     id="base"
     pagecolor="#ffffff"
     bordercolor="#666666"
     borderopacity="1.0"
     inkscape:pageopacity="0.0"
     inkscape:pageshadow="2"
     inkscape:zoom="5.6"
     inkscape:cx="357.4749"
     inkscape:cy="545.38343"
     inkscape:document-units="mm"
     inkscape:current-layer="layer1"
     showgrid="false"
     inkscape:window-width="1920"
     inkscape:window-height="979"
     inkscape:window-x="0"
     inkscape:window-y="33"
     inkscape:window-maximized="1"
     inkscape:snap-grids="false"
     inkscape:snap-to-guides="false" />
  <metadata
     id="metadata5">
    <rdf:RDF>
      <cc:Work
         rdf:about="">
        <dc:format>image/svg+xml</dc:format>
        <dc:type
           rdf:resource="http://purl.org/dc/dcmitype/StillImage" />
        <dc:title />
      </cc:Work>
    </rdf:RDF>
  </metadata>
  <g
     inkscape:label="Layer 1"
     inkscape:groupmode="layer"
     id="layer1">
    <path
       id="path868"
       style="fill:#000000;stroke-width:0.26458332"
       d="m 86.158074,148.9073 c 0.328604,-1.50494 1.98848,-11.34894 1.98848,-11.79281 0,-0.71278 -1.189289,-2.04388 -2.01023,-2.24992 -0.968959,-0.2432 -2.363104,0.28247 -2.89266,1.09067 -0.329374,0.50269 -0.414215,1.04317 -0.3198,2.03716 0.227645,2.39661 1.821521,11.13219 2.09051,11.45752 0.361791,0.43757 0.995304,0.137 1.1437,-0.54262 z m 0.93695,7.09955 c 1.394121,-1.48398 0.34203,-3.82922 -1.71783,-3.82922 -1.10514,0 -2.25772,1.23215 -2.25772,2.41358 0,1.88903 2.645751,2.83115 3.97555,1.41564 z m -18.796345,4.15485 c -1.241193,-0.64973 -2.19099,-2.46093 -2.017792,-3.84778 0.07027,-0.56269 0.675326,-2.15566 1.344556,-3.53991 1.877437,-3.88334 13.834859,-25.8699 14.808561,-27.22904 0.225068,-0.31416 0.942492,-0.77486 1.59426,-1.02377 1.542772,-0.5892 2.829607,-0.34792 4.00586,0.75107 0.770067,0.71948 7.346327,12.71199 15.653836,28.5464 0.82065,1.56418 0.91598,1.94669 0.80848,3.24318 -0.0893,1.07723 -0.29271,1.6527 -0.76141,2.15441 -1.37932,1.47646 -0.759,1.42804 -18.291446,1.42804 -15.187826,0 -16.281819,-0.0308 -17.144905,-0.4826 z"
       inkscape:connector-curvature="0"
       sodipodi:nodetypes="ssssssssssssssssssssss" />
  </g>
</svg>
