<?xml version="1.0" encoding="UTF-8" standalone="no"?>
<svg
   xmlns:dc="http://purl.org/dc/elements/1.1/"
   xmlns:cc="http://creativecommons.org/ns#"
   xmlns:rdf="http://www.w3.org/1999/02/22-rdf-syntax-ns#"
   xmlns:svg="http://www.w3.org/2000/svg"
   xmlns="http://www.w3.org/2000/svg"
   xmlns:sodipodi="http://sodipodi.sourceforge.net/DTD/sodipodi-0.dtd"
   xmlns:inkscape="http://www.inkscape.org/namespaces/inkscape"
   sodipodi:docname="ex-voto.svg"
   inkscape:version="1.0beta1 (1a794d5274, 2019-11-01)"
   id="svg8"
   version="1.1"
   viewBox="0 0 210 297"
   height="297mm"
   width="210mm">
  <defs
     id="defs2" />
  <sodipodi:namedview
     inkscape:window-maximized="1"
     inkscape:window-y="36"
     inkscape:window-x="0"
     inkscape:window-height="2060"
     inkscape:window-width="3840"
     showgrid="false"
     inkscape:document-rotation="0"
     inkscape:current-layer="layer1"
     inkscape:document-units="mm"
     inkscape:cy="560"
     inkscape:cx="400"
     inkscape:zoom="1.4"
     inkscape:pageshadow="2"
     inkscape:pageopacity="0.0"
     borderopacity="1.0"
     bordercolor="#666666"
     pagecolor="#ffffff"
     id="base" />
  <metadata
     id="metadata5">
    <rdf:RDF>
      <cc:Work
         rdf:about="">
        <dc:format>image/svg+xml</dc:format>
        <dc:type
           rdf:resource="http://purl.org/dc/dcmitype/StillImage" />
        <dc:title></dc:title>
      </cc:Work>
    </rdf:RDF>
  </metadata>
  <g
     id="layer1"
     inkscape:groupmode="layer"
     inkscape:label="Layer 1">
    <path
       inkscape:connector-curvature="0"
       id="path847"
       d="m 50.955452,196.43682 c -0.77075,-0.2767 -2.24237,-1.57377 -5.46877,-4.82009 -3.74407,-3.76721 -4.44277,-4.59603 -4.60211,-5.45923 -0.3692,-2.00011 0.8648,-4.17458 3.42603,-6.03712 1.61047,-1.17113 3.82214,-1.03274 5.32699,0.33332 0.53206,0.483 0.66009,0.36591 11.53685,-10.55025 l 10.99882,-11.03866 0.86367,-2.38125 c 1.94049,-5.35021 5.58164,-13.23078 8.53112,-18.46397 l 1.31005,-2.32439 3.3758,3.17513 3.37581,3.17514 -2.73643,5.46891 c -1.50504,3.0079 -2.73644,5.56579 -2.73644,5.68419 0,0.1184 0.44649,0.0313 0.99219,-0.19366 1.14342,-0.47128 8.13678,-3.96911 9.75459,-4.87891 1.03806,-0.58377 1.11925,-0.59157 1.71979,-0.16519 0.34667,0.24613 2.14351,1.56889 3.992978,2.93946 l 3.36269,2.49194 -3.49498,1.97999 c -6.228988,3.52888 -12.053028,6.29027 -18.311628,8.68221 l -3.43959,1.31456 -11.02944,11.01732 -11.02943,11.01733 0.63401,0.75349 c 0.34871,0.41442 0.71154,1.1667 0.80628,1.67174 0.31715,1.69056 -0.0837,2.73878 -1.69207,4.42523 -2.20432,2.31127 -3.57944,2.86032 -5.46678,2.18276 z m 112.426098,0.11214 c -1.22637,-0.35625 -4.26216,-3.622 -4.4885,-4.82849 -0.25211,-1.34388 0.0441,-2.66982 0.79594,-3.56338 l 0.63402,-0.75349 -11.02944,-11.01733 -11.02944,-11.01732 -3.43958,-1.31456 c -14.46571,-5.52858 -27.72078,-13.48531 -39.819788,-23.90296 -8.60442,-7.40869 -19.41517,-19.1098 -27.37937,-29.63428 l -2.34881,-3.1039 -1.49521,1.42619 c -2.76469,2.63707 -4.72785,2.60707 -7.44874,-0.11382 -0.84684,-0.84684 -1.65985,-1.85572 -1.8067,-2.24197 -0.38265,-1.00645 -0.32917,-2.69349 0.11175,-3.52523 0.20832,-0.39295 6.5484,-6.864808 14.08906,-14.381895 12.82041,-12.780315 13.78214,-13.678943 14.817,-13.844729 1.56304,-0.250401 3.05526,0.490966 4.89307,2.430981 2.42917,2.564264 2.44719,4.458825 0.0661,6.9551 -0.78963,0.827848 -1.4357,1.565861 -1.4357,1.640028 0,0.07417 1.22039,1.067877 2.71198,2.208243 9.49809,7.261594 19.670488,16.404682 26.556468,23.869332 11.97271,12.97884 21.47065,28.25032 27.35699,43.9866 l 1.13815,3.04271 10.99527,11.03866 c 10.87328,10.91619 11.00124,11.03325 11.5333,10.55025 0.90141,-0.81827 1.63486,-1.0837 2.99449,-1.0837 1.49954,0 2.74623,0.75895 4.3778,2.66507 1.18056,1.37921 1.63612,2.73993 1.38019,4.12243 -0.15998,0.86417 -0.87281,1.70691 -4.72494,5.58603 -5.12113,5.15703 -5.66704,5.48472 -8.00541,4.80543 z M 130.64042,148.54773 C 123.55814,134.11983 114.8742,122.49058 102.31508,110.61533 96.094642,104.73361 88.443562,98.252402 83.105642,94.343072 l -2.77099,-2.0294 -4.28102,4.27512 -4.28101,4.275118 1.87352,2.5421 c 4.62328,6.27314 11.63489,14.48459 18.07983,21.1737 8.04257,8.34726 18.127328,16.34527 27.885028,22.11503 3.35364,1.98302 12.98177,6.8171 13.18098,6.61789 0.0691,-0.0691 -0.89907,-2.21334 -2.15156,-4.7649 z m 3.70751,-21.81211 c -0.25213,-0.42682 -1.4116,-2.10093 -2.57659,-3.72025 l -2.11817,-2.94421 0.7336,-0.86249 c 0.40349,-0.47437 2.26644,-2.64002 4.1399,-4.81256 2.9923,-3.47 7.57934,-9.20999 9.93591,-12.4333 l 0.78586,-1.07489 -4.29575,-4.289838 -4.29575,-4.28983 -2.23911,1.63783 c -3.25529,2.38111 -6.77875,5.20364 -10.83481,8.679408 -1.96274,1.68193 -3.89448,3.33398 -4.29275,3.67122 l -0.72414,0.61317 -3.21217,-3.19121 -3.21217,-3.19122 1.39856,-1.258408 c 2.86019,-2.57358 9.21305,-7.86495 12.26041,-10.211834 1.73088,-1.333014 3.39364,-2.61817 3.69502,-2.855901 0.54159,-0.427198 0.53048,-0.451133 -0.95275,-2.053193 -2.42929,-2.623928 -2.42491,-4.407445 0.0172,-6.985337 1.83781,-1.940015 3.33004,-2.681382 4.89308,-2.430981 1.03485,0.165786 1.99659,1.064414 14.81699,13.844729 7.54067,7.517087 13.88074,13.988945 14.08906,14.381895 0.20832,0.39296 0.37876,1.29783 0.37876,2.01083 0,1.49488 -0.761,2.74373 -2.66508,4.37355 -2.39812,2.0527 -4.32597,1.91118 -6.85739,-0.50338 l -1.49523,-1.42621 -1.30095,1.781 c -3.50941,4.80436 -14.91895,18.31746 -15.46602,18.31746 -0.0809,0 -0.35336,-0.34922 -0.60549,-0.77605 z"
       style="fill:#000000;stroke-width:0.264583" />
  </g>
</svg>
