<?xml version="1.0" encoding="UTF-8" standalone="no"?>
<svg
   xmlns:dc="http://purl.org/dc/elements/1.1/"
   xmlns:cc="http://creativecommons.org/ns#"
   xmlns:rdf="http://www.w3.org/1999/02/22-rdf-syntax-ns#"
   xmlns:svg="http://www.w3.org/2000/svg"
   xmlns="http://www.w3.org/2000/svg"
   xmlns:sodipodi="http://sodipodi.sourceforge.net/DTD/sodipodi-0.dtd"
   xmlns:inkscape="http://www.inkscape.org/namespaces/inkscape"
   width="210mm"
   height="297mm"
   viewBox="0 0 210 297"
   version="1.1"
   id="svg892"
   inkscape:version="1.0beta1 (1a794d5274, 2019-11-01)"
   sodipodi:docname="gate.svg">
  <defs
     id="defs886" />
  <sodipodi:namedview
     inkscape:guide-bbox="true"
     showguides="true"
     id="base"
     pagecolor="#ffffff"
     bordercolor="#666666"
     borderopacity="1.0"
     inkscape:pageopacity="0.0"
     inkscape:pageshadow="2"
     inkscape:zoom="2.8"
     inkscape:cx="400"
     inkscape:cy="560"
     inkscape:document-units="mm"
     inkscape:current-layer="layer1"
     inkscape:document-rotation="0"
     showgrid="false"
     inkscape:window-width="3840"
     inkscape:window-height="2060"
     inkscape:window-x="0"
     inkscape:window-y="36"
     inkscape:window-maximized="1" />
  <metadata
     id="metadata889">
    <rdf:RDF>
      <cc:Work
         rdf:about="">
        <dc:format>image/svg+xml</dc:format>
        <dc:type
           rdf:resource="http://purl.org/dc/dcmitype/StillImage" />
        <dc:title></dc:title>
      </cc:Work>
    </rdf:RDF>
  </metadata>
  <g
     inkscape:label="Layer 1"
     inkscape:groupmode="layer"
     id="layer1">
    <path
       id="path875"
       d="m 119.45858,213.42645 0.26459,-123.47537 c 22.44852,4.882719 42.03693,23.62868 50.79479,39.21603 1.3083,2.36457 2.42502,4.81133 3.51093,7.28114 l -0.19844,86.73331 z"
       style="fill:#000000;stroke-width:0.264583" />
    <path
       id="path1469"
       d="m 38.562233,136.44825 0.95633,-2.17509 c 0.52599,-1.1963 1.67556,-3.49402 2.55461,-5.10605 9.89537,-18.14639 24.07815,-31.03686 40.23694,-36.5706 2.79979,-0.95882 6.97478,-2.05577 8.9042,-2.33953 0.65485,-0.0963 1.39899,-0.23396 1.65365,-0.3059 l 0.46302,53.08612 h 6.35 v 22.75417 h -6.35 v 47.58296 l -0.72761,0.14689 -53.44583,9.55852 -0.59531,0.1363 z"
       style="fill:#000000;stroke-width:0.264583" />
    <path
       inkscape:connector-curvature="0"
       id="path901"
       d="m 124.28723,178.46739 44.58217,7.83832"
       style="fill:none;stroke:#000000;stroke-width:0.264583px;stroke-linecap:butt;stroke-linejoin:miter;stroke-opacity:1" />
    <path
       inkscape:connector-curvature="0"
       id="path903"
       d="m 124.61796,183.51337 44.17603,7.678"
       style="fill:none;stroke:#000000;stroke-width:0.264583px;stroke-linecap:butt;stroke-linejoin:miter;stroke-opacity:1" />
    <path
       inkscape:connector-curvature="0"
       id="path905"
       d="m 168.67108,217.35855 -44.38385,-7.97341"
       style="fill:none;stroke:#000000;stroke-width:0.264583px;stroke-linecap:butt;stroke-linejoin:miter;stroke-opacity:1" />
    <g
       id="g922">
      <path
         id="rect907"
         style="fill:#ffffff;fill-opacity:1;stroke:none;stroke-width:0.1;stroke-miterlimit:4;stroke-dasharray:none;stroke-opacity:1"
         d="m 48.750909,193.38757 11.481383,-1.96867 v 20.65258 l -11.481383,1.90706 z"
         inkscape:connector-curvature="0"
         sodipodi:nodetypes="ccccc" />
      <path
         sodipodi:nodetypes="ccccc"
         inkscape:connector-curvature="0"
         d="m 70.127869,189.64201 11.481383,-1.96867 v 20.65258 l -11.481383,1.90706 z"
         style="fill:#ffffff;fill-opacity:1;stroke:none;stroke-width:0.1;stroke-miterlimit:4;stroke-dasharray:none;stroke-opacity:1"
         id="path912" />
      <path
         sodipodi:nodetypes="ccccc"
         inkscape:connector-curvature="0"
         d="m 48.750909,134.74973 c 3.18291,-7.68837 7.209364,-12.52789 11.481383,-16.53808 l 0,62.32022 -11.481383,1.90706 z"
         style="fill:#ffffff;fill-opacity:1;stroke:none;stroke-width:0.1;stroke-miterlimit:4;stroke-dasharray:none;stroke-opacity:1"
         id="path914" />
      <path
         id="path916"
         style="fill:#ffffff;fill-opacity:1;stroke:none;stroke-width:0.1;stroke-miterlimit:4;stroke-dasharray:none;stroke-opacity:1"
         d="m 70.127869,111.30946 c 2.807207,-3.98833 8.127878,-7.5241 11.481383,-9.03924 v 73.86836 l -11.481383,1.90706 z"
         inkscape:connector-curvature="0"
         sodipodi:nodetypes="ccccc" />
    </g>
    <g
       transform="matrix(-1,0,0,1,211.20486,0)"
       id="g932">
      <path
         sodipodi:nodetypes="ccccc"
         inkscape:connector-curvature="0"
         d="m 48.750909,193.38757 11.481383,-1.96867 v 20.65258 l -11.481383,1.90706 z"
         style="fill:#ffffff;fill-opacity:1;stroke:none;stroke-width:0.1;stroke-miterlimit:4;stroke-dasharray:none;stroke-opacity:1"
         id="path924" />
      <path
         id="path926"
         style="fill:#ffffff;fill-opacity:1;stroke:none;stroke-width:0.1;stroke-miterlimit:4;stroke-dasharray:none;stroke-opacity:1"
         d="m 70.127869,189.64201 11.481383,-1.96867 v 20.65258 l -11.481383,1.90706 z"
         inkscape:connector-curvature="0"
         sodipodi:nodetypes="ccccc" />
      <path
         id="path928"
         style="fill:#ffffff;fill-opacity:1;stroke:none;stroke-width:0.1;stroke-miterlimit:4;stroke-dasharray:none;stroke-opacity:1"
         d="m 48.750909,134.74973 c 3.18291,-7.68837 7.209364,-12.52789 11.481383,-16.53808 v 62.32022 l -11.481383,1.90706 z"
         inkscape:connector-curvature="0"
         sodipodi:nodetypes="ccccc" />
      <path
         sodipodi:nodetypes="ccccc"
         inkscape:connector-curvature="0"
         d="m 70.127869,111.30946 c 2.807207,-3.98833 8.127878,-7.5241 11.481383,-9.03924 v 73.86836 l -11.481383,1.90706 z"
         style="fill:#ffffff;fill-opacity:1;stroke:none;stroke-width:0.1;stroke-miterlimit:4;stroke-dasharray:none;stroke-opacity:1"
         id="path930" />
    </g>
  </g>
</svg>
