<?xml version="1.0" encoding="UTF-8" standalone="no"?>
<!-- Created with Inkscape (http://www.inkscape.org/) -->

<svg
   xmlns:dc="http://purl.org/dc/elements/1.1/"
   xmlns:cc="http://creativecommons.org/ns#"
   xmlns:rdf="http://www.w3.org/1999/02/22-rdf-syntax-ns#"
   xmlns:svg="http://www.w3.org/2000/svg"
   xmlns="http://www.w3.org/2000/svg"
   xmlns:sodipodi="http://sodipodi.sourceforge.net/DTD/sodipodi-0.dtd"
   xmlns:inkscape="http://www.inkscape.org/namespaces/inkscape"
   width="210mm"
   height="297mm"
   viewBox="0 0 210 297"
   version="1.1"
   id="svg2744"
   inkscape:version="0.92.4 5da689c313, 2019-01-14"
   sodipodi:docname="human_bone.svg">
  <defs
     id="defs2738" />
  <sodipodi:namedview
     id="base"
     pagecolor="#ffffff"
     bordercolor="#666666"
     borderopacity="1.0"
     inkscape:pageopacity="0.0"
     inkscape:pageshadow="2"
     inkscape:zoom="0.7"
     inkscape:cx="-452.14286"
     inkscape:cy="555"
     inkscape:document-units="mm"
     inkscape:current-layer="layer1"
     showgrid="false"
     inkscape:window-width="1920"
     inkscape:window-height="979"
     inkscape:window-x="0"
     inkscape:window-y="33"
     inkscape:window-maximized="1" />
  <metadata
     id="metadata2741">
    <rdf:RDF>
      <cc:Work
         rdf:about="">
        <dc:format>image/svg+xml</dc:format>
        <dc:type
           rdf:resource="http://purl.org/dc/dcmitype/StillImage" />
        <dc:title />
      </cc:Work>
    </rdf:RDF>
  </metadata>
  <g
     inkscape:label="Layer 1"
     inkscape:groupmode="layer"
     id="layer1">
    <path
       style="fill:#000000;stroke-width:0.26458332"
       d="m 92.821177,182.12694 c -5.050642,-1.49253 -8.713274,-4.5714 -8.73456,-7.34243 -0.0032,-0.41605 -0.707273,-2.7973 -1.564616,-5.29167 -1.958297,-5.6975 -2.579571,-7.25617 -3.099485,-7.77609 -0.631322,-0.63132 -0.897959,-1.54943 -0.897959,-3.09193 0,-0.79121 -0.348331,-2.57611 -0.798393,-4.09108 -1.613612,-5.43162 -1.641197,-8.78195 -0.120983,-14.69427 1.01428,-3.94467 2.39649,-6.17932 5.484338,-8.86666 l 0.99309,-0.86428 0.492421,0.60811 0.492422,0.60811 -1.938695,1.88291 c -2.917923,2.83394 -4.198572,6.05575 -4.867777,12.24614 -0.323461,2.99214 -0.0056,5.57392 1.069673,8.68685 0.295706,0.85611 0.635812,2.62261 0.75579,3.92554 0.190725,2.07121 0.296717,2.42041 0.84323,2.77813 0.343797,0.22503 1.02803,0.76047 1.520518,1.18987 0.846899,0.73841 1.006705,0.77693 2.948453,0.71074 1.834724,-0.0626 2.130655,-0.003 2.783146,0.55804 0.628965,0.54101 0.754502,0.89396 0.906053,2.54734 0.208825,2.27827 0.443603,2.51129 2.269006,2.25203 2.043842,-0.29028 4.110071,-0.3997 8.995831,-0.47641 5.68175,-0.0892 5.25116,-0.0176 5.04508,-0.83871 -0.27146,-1.08159 0.0222,-1.556 1.68499,-2.7224 1.62979,-1.14324 2.09727,-1.28652 2.58997,-0.79381 0.66688,0.66688 3.43608,-1.2269 5.2265,-3.57425 0.66999,-0.87842 0.68755,-0.97033 0.29298,-1.53366 -0.6327,-0.90331 -0.50921,-2.52245 0.40231,-5.27512 1.47583,-4.45679 1.35333,-9.4154 -0.3521,-14.25176 -0.9048,-2.56586 -1.35418,-3.30172 -3.16277,-5.17892 -1.21689,-1.26304 -1.27748,-1.39289 -1.08399,-2.32292 l 0.20495,-0.9851 1.6386,1.66147 c 2.96365,3.00499 4.47017,6.34893 5.27026,11.69807 0.51248,3.42634 0.0374,7.52879 -1.25174,10.80913 -0.64618,1.64426 -0.62891,2.52846 0.0638,3.26579 0.72673,0.77357 0.54875,1.48326 -0.7953,3.17133 -0.60205,0.75613 -1.49718,2.4684 -2.13091,4.07612 -0.60102,1.52475 -1.45253,3.35634 -1.89224,4.0702 -0.94208,1.52944 -1.33572,3.32999 -1.25474,5.73916 0.071,2.11145 -0.27973,2.766 -2.54323,4.74653 -2.24133,1.96113 -3.82613,2.55462 -8.434565,3.15865 -3.076355,0.40322 -4.567449,0.31464 -7.049338,-0.41879 z"
       id="path3539" />
    <path
       style="fill:#000000;stroke-width:0.26458332"
       d="m 100.23947,180.81837 c 3.98019,-0.55514 5.36216,-1.11511 7.31544,-2.96422 l 1.60504,-1.51943 0.12731,-2.94903 c 0.093,-2.15504 0.25637,-3.18795 0.60666,-3.83646 1.9775,-3.66103 2.48237,-4.85831 2.08489,-4.94423 -0.72727,-0.1572 -1.60389,0.67422 -2.09082,1.983 -0.26193,0.70403 -0.68837,1.63724 -0.94765,2.0738 -0.25928,0.43656 -0.55434,1.35546 -0.6557,2.04199 -0.10135,0.68654 -0.32016,1.35772 -0.48624,1.49152 -1.28803,1.03769 -6.91866,2.34441 -9.562385,2.21919 -0.436563,-0.0207 -2.043906,-0.093 -3.571875,-0.16071 -2.944921,-0.1305 -6.679152,-0.96903 -7.464517,-1.67617 -0.589796,-0.53105 -0.971685,-1.70874 -1.655858,-5.10645 l -0.559411,-2.77812 -1.116994,-0.15058 c -0.614344,-0.0828 -1.156615,-0.11096 -1.205042,-0.0625 -0.04843,0.0484 0.608108,2.12234 1.458968,4.6087 0.850863,2.48636 1.547021,4.80404 1.547021,5.15041 0,0.34636 0.187817,1.09915 0.417372,1.67287 0.722522,1.80575 4.983546,4.24493 8.975336,5.13784 1.029433,0.23026 2.264095,0.1751 5.178455,-0.23139 z"
       id="path3537" />
    <path
       style="fill:#000000;stroke-width:0.26458332"
       d="m 102.99851,172.31021 c 0.43657,-0.12239 1.41272,-0.45358 2.16924,-0.73598 1.25817,-0.46966 1.38989,-0.59871 1.54437,-1.51311 0.0929,-0.54981 0.56617,-1.80312 1.05174,-2.78512 0.48557,-0.982 0.83222,-1.83608 0.77033,-1.89797 -0.0619,-0.0619 -0.40999,0.0467 -0.77358,0.24127 -0.51277,0.27443 -0.66294,0.56632 -0.66947,1.30127 -0.0185,2.08275 -1.3636,2.67143 -5.41738,2.37091 -1.839561,-0.13637 -3.485471,-0.11404 -4.478187,0.0608 -0.863285,0.15201 -1.970998,0.20109 -2.461583,0.10905 -0.518525,-0.0973 -1.467599,-2.3e-4 -2.266849,0.23179 -1.793156,0.52055 -3.226642,0.21847 -4.219146,-0.88912 -0.59984,-0.66939 -0.727605,-1.05788 -0.727605,-2.21243 0,-0.82178 -0.160514,-1.61269 -0.388461,-1.91406 -0.383265,-0.50672 -0.388445,-0.50651 -0.387347,0.0156 0.0019,0.93903 1.24297,6.22106 1.547963,6.58856 0.162475,0.19577 0.85888,0.43489 1.547566,0.53137 0.688684,0.0965 1.518174,0.32309 1.84331,0.50358 0.678453,0.37661 9.967619,0.3714 11.315089,-0.006 z"
       id="path3535" />
    <path
       style="fill:#000000;stroke-width:0.26458332"
       d="m 95.340529,164.26074 c -0.98429,-0.77425 -1.72334,-2.46223 -1.72208,-3.93323 5.29e-4,-0.65484 0.303201,-2.02406 0.672539,-3.0427 0.369334,-1.01865 0.901541,-2.49413 1.182679,-3.27884 0.648576,-1.81031 0.935188,-2.14512 1.836306,-2.14512 0.879946,0 1.264449,0.41658 1.488535,1.61271 0.09282,0.49546 0.45638,1.21091 0.807914,1.58991 1.096238,1.18187 2.336588,5.8558 1.892258,7.13043 -0.36536,1.04805 -2.106047,2.17171 -3.467863,2.23859 -0.614746,0.0302 -1.304401,0.13537 -1.53257,0.23374 -0.248322,0.10705 -0.713054,-0.0557 -1.157718,-0.40549 z"
       id="path3495" />
    <path
       style="fill:#000000;stroke-width:0.26458332"
       d="m 96.948362,162.52904 c 0.54678,-0.35827 0.776142,-0.38309 1.18433,-0.12817 0.741739,0.46322 1.823114,-0.29729 1.823114,-1.28216 0,-1.19049 -1.058513,-4.30837 -1.705819,-5.02453 -0.328821,-0.3638 -0.687638,-0.89958 -0.797372,-1.19062 -0.175659,-0.46591 -0.240183,-0.41846 -0.539697,0.39687 -0.187102,0.50932 -0.529455,1.28251 -0.760783,1.71819 -0.23133,0.43568 -0.559622,1.41337 -0.729543,2.17264 -0.263702,1.17836 -0.241792,1.55634 0.149646,2.5813 0.252222,0.66043 0.512458,1.20079 0.578302,1.20079 0.06584,0 0.424865,-0.19994 0.797822,-0.44431 z"
       id="path3493" />
    <path
       style="fill:#000000;stroke-width:0.26458332"
       d="m 85.006849,157.16693 c -1.403988,-0.57464 -2.319041,-2.59958 -2.338009,-5.17383 -0.0205,-2.7845 1.038992,-4.36427 3.793217,-5.65585 2.909893,-1.36456 6.479159,-0.78068 7.887105,1.29022 0.563835,0.82933 0.618034,1.14711 0.518961,3.04271 -0.161007,3.08058 -0.803307,4.36672 -2.626124,5.25854 -1.346007,0.65854 -4.887304,1.50811 -6.133946,1.47157 -0.314622,-0.009 -0.810163,-0.11424 -1.101204,-0.23336 z"
       id="path3485" />
    <path
       style="fill:#000000;stroke-width:0.26458332"
       d="m 90.786952,154.77594 c 1.23108,-0.47032 1.615937,-0.7606 1.885656,-1.4223 0.540269,-1.32542 0.720265,-3.22885 0.413181,-4.36927 -0.256315,-0.95188 -0.411694,-1.09561 -1.617302,-1.49605 -1.546873,-0.51379 -2.620833,-0.3904 -4.668753,0.53638 -2.023724,0.91583 -2.515393,1.8297 -2.382416,4.42818 0.146311,2.859 0.493797,3.21491 2.970781,3.04273 1.018645,-0.0708 2.54813,-0.39466 3.398853,-0.71967 z"
       id="path3483" />
    <path
       style="fill:#000000;stroke-width:0.26458332"
       d="m 106.30581,157.13462 c -3.65809,-0.68963 -5.52804,-1.90366 -6.09549,-3.95736 -0.501452,-1.81488 -0.437579,-4.83411 0.12028,-5.68552 0.56642,-0.86446 2.99656,-1.98093 4.31175,-1.98093 2.80849,0 5.93276,1.72454 6.95687,3.84008 0.51295,1.05961 0.57878,1.51782 0.45436,3.16286 -0.30821,4.07529 -1.8912,5.34792 -5.74777,4.62087 z"
       id="path3481" />
    <path
       style="fill:#000000;stroke-width:0.26458332"
       d="m 109.68465,155.08341 c 0.98289,-1.25186 1.06176,-4.2981 0.14416,-5.56793 -0.6579,-0.91044 -3.21827,-2.18947 -4.64613,-2.32097 -0.80128,-0.0738 -1.46906,0.069 -2.31646,0.49537 l -1.19062,0.59905 0.005,2.26825 c 0.008,3.43355 0.70213,4.1464 4.75748,4.88289 2.03198,0.36902 2.73767,0.29149 3.24656,-0.35666 z"
       id="path3479" />
    <path
       style="fill:#000000;stroke-width:0.26458332"
       d="m 80.453375,153.00206 c -0.09418,-0.24544 0.05318,-1.76349 0.327486,-3.37344 0.274298,-1.60995 0.503922,-3.6468 0.510272,-4.52632 0.01127,-1.55921 -0.06884,-1.7713 -1.306883,-3.4601 -0.181612,-0.24773 -0.126521,-0.48837 0.182568,-0.79746 0.405554,-0.40556 0.496139,-0.40764 1.080445,-0.0248 1.052925,0.6899 1.630939,2.21178 1.630865,4.29397 -7.7e-5,2.2566 -0.88701,7.8633 -1.286394,8.13189 -0.485828,0.32671 -0.958268,0.22555 -1.138359,-0.24376 z"
       id="path3473" />
    <path
       style="fill:#000000;stroke-width:0.26458332"
       d="m 112.8223,152.60559 c -0.0642,-0.33687 -0.31299,-2.16738 -0.55279,-4.0678 -0.41459,-3.28571 -0.41256,-3.52596 0.0413,-4.89479 0.40843,-1.23178 0.57273,-1.43948 1.13875,-1.43948 0.72634,0 0.77066,0.31051 0.33987,2.38125 -0.1374,0.6604 -0.0901,2.0034 0.12571,3.57187 0.19024,1.38245 0.31214,3.04932 0.27088,3.70417 -0.063,0.99977 -0.16893,1.20398 -0.66096,1.27394 -0.43587,0.062 -0.61588,-0.0736 -0.70276,-0.52916 z"
       id="path3471" />
    <path
       style="fill:#000000;stroke-width:0.26458332"
       d="m 109.09639,130.60368 c -0.55462,-0.40555 -0.41437,-1.1456 0.26664,-1.40693 0.63169,-0.2424 1.37287,0.59715 1.02043,1.15588 -0.38554,0.6112 -0.70841,0.67418 -1.28707,0.25105 z"
       id="path3469" />
    <path
       style="fill:#000000;stroke-width:0.26458332"
       d="m 85.050947,130.51778 c -0.395264,-0.39526 -0.119462,-1.04763 0.678796,-1.6056 0.555485,-0.38827 0.935551,-0.50185 1.106678,-0.33073 0.432925,0.43293 0.683969,0.29596 0.683969,-0.37317 0,-0.51679 0.3053,-0.7797 1.653646,-1.42403 2.298478,-1.09836 5.760728,-1.77269 7.000608,-1.3635 0.585782,0.19333 1.594574,0.24339 2.703237,0.13414 1.564079,-0.15412 2.134329,-0.0635 4.929039,0.78293 2.57541,0.78005 4.21268,1.46569 5.10874,2.13941 0.053,0.0398 -0.1459,0.38032 -0.44193,0.75666 -0.53203,0.67637 -0.98527,0.54615 -0.69866,-0.20073 0.11632,-0.30313 -0.12607,-0.39203 -1.13063,-0.41466 -0.70328,-0.0159 -1.97658,-0.26891 -2.82955,-0.56238 -5.378506,-1.85048 -10.706341,-1.64765 -14.66342,0.55822 -0.776393,0.4328 -1.840111,0.84177 -2.363817,0.90882 -1.088845,0.13941 -1.488744,0.37726 -0.634277,0.37726 0.666747,0 0.764325,0.39924 0.154749,0.63315 -0.547198,0.20998 -1.037569,0.20382 -1.257178,-0.0158 z"
       id="path3467" />
    <g
       transform="translate(-250.79253,-11.905272)"
       id="g822">
      <path
         inkscape:connector-curvature="0"
         id="path1538"
         d="m 65.295393,181.25984 c -5.386975,-1.40834 -7.816074,-7.42348 -4.872332,-12.06528 0.968194,-1.52668 0.983725,-1.46236 -0.353188,-1.46261 -5.033904,-0.001 -8.793067,-6.33959 -6.620995,-11.16425 2.701044,-5.99961 11.448086,-6.24035 14.394799,-0.39617 0.307708,0.61027 0.585354,1.14018 0.61699,1.17758 0.03164,0.0374 4.392549,-1.96089 9.690915,-4.44063 5.298368,-2.47975 9.880351,-4.57183 10.182191,-4.64907 0.82477,-0.21106 1.20819,0.46794 1.43597,2.543 0.39885,3.63343 1.99429,4.91225 8.13288,6.51892 0.79982,0.20934 0.0262,0.61099 -11.55246,5.99755 l -12.409697,5.77318 0.549087,1.23828 c 2.538782,5.72535 -3.165028,12.50572 -9.19416,10.9295 z"
         style="fill:#000000;stroke-width:0.26458332" />
      <path
         inkscape:connector-curvature="0"
         id="path1536"
         d="m 147.31622,181.13694 c -4.72912,-1.56963 -7.12363,-6.52116 -5.22544,-10.8055 l 0.54814,-1.23717 -12.34572,-5.7432 c -6.79015,-3.15876 -12.38494,-5.77656 -12.43286,-5.81732 -0.0479,-0.0408 0.60693,-0.21733 1.45521,-0.39238 4.69473,-0.96876 7.49546,-3.32832 7.49546,-6.31478 0,-1.28404 0.38655,-2.3709 0.91541,-2.57384 0.21681,-0.0832 4.77274,1.89603 10.12428,4.39828 5.35156,2.50225 9.85862,4.60237 10.01569,4.66695 0.15708,0.0646 0.50593,-0.37122 0.77523,-0.96841 2.68783,-5.96054 11.49939,-5.87379 14.42151,0.14198 2.31617,4.76829 -1.45623,11.23945 -6.55264,11.2404 -1.33691,2.5e-4 -1.32138,-0.0641 -0.35319,1.46261 3.24022,5.10929 -0.10132,11.73192 -6.1424,12.1737 -0.98148,0.0718 -2.06544,-0.0211 -2.69868,-0.23132 z"
         style="fill:#000000;stroke-width:0.26458332" />
      <path
         inkscape:connector-curvature="0"
         d="m 128.16568,130.5275 c 1.53372,-0.88574 1.88055,-1.9171 1.72471,-5.12868 -0.27801,-5.7294 -2.36249,-9.7332 -5.5233,-10.60902 -3.0347,-0.84088 -8.6856,0.81011 -10.27295,3.00138 -3.21734,4.44142 -0.13445,12.19709 5.23515,13.17017 2.33451,0.42306 7.81885,0.15379 8.83639,-0.43385 z m -31.252577,0.41036 c 4.253147,-0.68701 6.736877,-4.04248 6.743927,-9.11091 0.006,-4.13114 -2.23089,-6.20606 -7.585217,-7.03681 -4.6137,-0.71584 -7.05744,0.90649 -8.57087,5.68996 -1.38872,4.3893 -1.14653,8.72714 0.54929,9.83829 1.33162,0.87251 5.49489,1.1635 8.86287,0.61947 z m 17.065617,7.29334 c 0,-2.31262 -3.7302,-10.63095 -5.35448,-10.7811 -1.62429,-0.15015 -6.13258,8.18587 -5.95649,10.76652 1.98747,1.40682 9.36845,1.75952 11.31097,0.0146 z m -11.24479,15.84872 c -6.643117,-0.58106 -9.260417,-1.60342 -9.260417,-3.61732 0,-3.53892 -1.57934,-5.26303 -6.93242,-7.56791 -5.113816,-2.20186 -5.750338,-2.75105 -6.018469,-5.19274 -0.137202,-1.2494 -0.445048,-2.28458 -0.946026,-3.18116 -0.948044,-1.69668 -0.819046,-2.22501 1.056463,-4.32693 1.908916,-2.13936 1.90319,-2.09247 0.962022,-7.87916 -2.560947,-15.74574 -1.974887,-22.741903 2.445634,-29.195053 9.540976,-13.928088 38.426813,-14.165951 48.196143,-0.396875 4.72688,6.662165 5.37483,13.644228 2.74371,29.565308 -0.95025,5.75003 -0.94921,5.75853 0.96673,7.90578 1.87551,2.10192 2.00451,2.63025 1.05646,4.32693 -0.50097,0.89658 -0.80882,1.93176 -0.94602,3.18116 -0.26743,2.43525 -0.85257,2.94031 -5.99099,5.17092 -5.38226,2.33645 -6.9599,4.054 -6.9599,7.5771 0,2.49018 -3.69987,3.49978 -13.36146,3.646 -3.20146,0.0485 -6.35662,0.0412 -7.01146,-0.0161 z"
         style="fill:#000000;stroke-width:0.26458332"
         id="path1528" />
      <path
         inkscape:connector-curvature="0"
         id="path1526"
         d="m 59.116517,139.93668 c -8.69434,-1.75192 -8.098737,-14.57897 0.73134,-15.75033 l 1.361391,-0.18059 -0.457267,-0.69253 c -2.878251,-4.3591 -1.650769,-9.71585 2.736369,-11.94158 6.498262,-3.29676 13.890953,3.5703 10.964852,10.18523 l -0.541274,1.22365 2.174023,1.04994 c 2.892506,1.39692 3.15841,2.25148 1.356762,4.36033 -2.370672,2.7749 -2.752958,4.79911 -1.412825,7.48095 1.455923,2.91356 1.235202,2.9698 -3.294285,0.83927 -2.165281,-1.01848 -4.029895,-1.85178 -4.143586,-1.85178 -0.113691,0 -0.465429,0.53444 -0.78164,1.18765 -1.420541,2.93444 -5.321176,4.76939 -8.69386,4.08979 z"
         style="fill:#000000;stroke-width:0.26458332" />
      <path
         inkscape:connector-curvature="0"
         id="path826"
         d="m 153.82004,139.80308 c -2.43146,-0.66707 -4.37975,-2.25955 -5.21755,-4.2647 -0.47151,-1.12848 -0.20953,-1.18177 -4.77282,0.97097 -2.25592,1.06424 -3.4392,1.58223 -3.87676,1.47046 -0.43756,-0.11176 -0.1294,-0.85328 0.59756,-2.30806 1.34391,-2.6894 0.95889,-4.70484 -1.43383,-7.50554 -1.82325,-2.13414 -1.57929,-2.91833 1.34433,-4.32118 l 2.20939,-1.06015 -0.56006,-1.26611 c -2.30802,-5.21766 1.82231,-11.14571 7.58717,-10.8895 6.64659,0.2954 9.8859,6.99705 6.13091,12.68396 l -0.45727,0.69253 1.3614,0.18059 c 6.68574,0.8869 9.44462,9.16014 4.55699,13.6654 -2.14435,1.97659 -4.82491,2.67686 -7.46946,1.95133 z"
         style="fill:#000000;stroke-width:0.26458332" />
    </g>
  </g>
</svg>
