<?xml version="1.0" encoding="UTF-8" standalone="no"?>
<svg
   xmlns:dc="http://purl.org/dc/elements/1.1/"
   xmlns:cc="http://creativecommons.org/ns#"
   xmlns:rdf="http://www.w3.org/1999/02/22-rdf-syntax-ns#"
   xmlns:svg="http://www.w3.org/2000/svg"
   xmlns="http://www.w3.org/2000/svg"
   xmlns:sodipodi="http://sodipodi.sourceforge.net/DTD/sodipodi-0.dtd"
   xmlns:inkscape="http://www.inkscape.org/namespaces/inkscape"
   sodipodi:docname="ladder.svg"
   inkscape:version="1.0beta1 (1a794d5274, 2019-11-01)"
   id="svg958"
   version="1.1"
   viewBox="0 0 210 297"
   height="297mm"
   width="210mm">
  <defs
     id="defs952" />
  <sodipodi:namedview
     inkscape:window-maximized="1"
     inkscape:window-y="36"
     inkscape:window-x="0"
     inkscape:window-height="2060"
     inkscape:window-width="3840"
     showgrid="false"
     inkscape:document-rotation="0"
     inkscape:current-layer="layer1"
     inkscape:document-units="mm"
     inkscape:cy="560"
     inkscape:cx="400"
     inkscape:zoom="1.979899"
     inkscape:pageshadow="2"
     inkscape:pageopacity="0.0"
     borderopacity="1.0"
     bordercolor="#666666"
     pagecolor="#ffffff"
     id="base" />
  <metadata
     id="metadata955">
    <rdf:RDF>
      <cc:Work
         rdf:about="">
        <dc:format>image/svg+xml</dc:format>
        <dc:type
           rdf:resource="http://purl.org/dc/dcmitype/StillImage" />
        <dc:title></dc:title>
      </cc:Work>
    </rdf:RDF>
  </metadata>
  <g
     id="layer1"
     inkscape:groupmode="layer"
     inkscape:label="Layer 1">
    <path
       sodipodi:nodetypes="cccssccssccccccccccccccccccccccccc"
       inkscape:connector-curvature="0"
       id="path1587"
       d="m 71.643124,218.48029 c -1.43006,-0.43658 -2.896664,-1.37219 -3.79367,-2.42013 L 68.31633,85.503163 c 2.842767,-2.825489 7.072317,-2.976645 10.046085,-0.359028 2.230419,1.963292 2.38941,2.499365 2.541125,8.567961 l 0.132291,5.291668 h 44.714579 l 0.13229,-5.291668 c 0.15176,-6.070475 0.31029,-6.604304 2.54556,-8.571868 3.06334,-2.696459 7.83129,-2.33937 10.50728,0.786929 V 216.06161 c -3.48774,4.07464 -10.16558,3.16679 -12.42695,-1.68944 -0.57533,-1.23552 -0.62091,-1.66676 -0.62331,-5.89706 l -0.003,-4.56406 H 80.90354 l -0.0026,4.56406 c -0.0024,4.2303 -0.04798,4.66154 -0.623311,5.89706 -1.466328,3.14904 -5.495977,5.06626 -8.634459,4.10812 z M 125.75037,173.88084 H 81.035831 l -0.14054,14.94896 h 44.995639 z m 4e-5,-29.63333 H 81.035831 l -0.1408,14.41979 h 44.996159 z m -4e-5,-30.1625 H 81.035831 l -0.14054,14.94896 h 44.995639 z"
       style="fill:#000000;stroke-width:0.264583" />
  </g>
</svg>
