<?xml version="1.0" encoding="UTF-8" standalone="no"?>
<!-- Created with Inkscape (http://www.inkscape.org/) -->

<svg
   xmlns:dc="http://purl.org/dc/elements/1.1/"
   xmlns:cc="http://creativecommons.org/ns#"
   xmlns:rdf="http://www.w3.org/1999/02/22-rdf-syntax-ns#"
   xmlns:svg="http://www.w3.org/2000/svg"
   xmlns="http://www.w3.org/2000/svg"
   xmlns:sodipodi="http://sodipodi.sourceforge.net/DTD/sodipodi-0.dtd"
   xmlns:inkscape="http://www.inkscape.org/namespaces/inkscape"
   width="210mm"
   height="297mm"
   viewBox="0 0 210 297"
   version="1.1"
   id="svg8"
   inkscape:version="0.92.4 5da689c313, 2019-01-14"
   sodipodi:docname="mud.svg">
  <defs
     id="defs2">
    <clipPath
       clipPathUnits="userSpaceOnUse"
       id="clipPath882">
      <rect
         style="opacity:1;fill:none;fill-opacity:1;stroke:#000000;stroke-width:0.47;stroke-miterlimit:4;stroke-dasharray:none;stroke-dashoffset:0;stroke-opacity:1"
         id="rect884"
         width="205.61905"
         height="140.60715"
         x="-207.13094"
         y="16.541666" />
    </clipPath>
  </defs>
  <sodipodi:namedview
     id="base"
     pagecolor="#ffffff"
     bordercolor="#666666"
     borderopacity="1.0"
     inkscape:pageopacity="0.0"
     inkscape:pageshadow="2"
     inkscape:zoom="0.7"
     inkscape:cx="238.66537"
     inkscape:cy="758.57143"
     inkscape:document-units="mm"
     inkscape:current-layer="layer1"
     showgrid="false"
     inkscape:window-width="1920"
     inkscape:window-height="979"
     inkscape:window-x="0"
     inkscape:window-y="33"
     inkscape:window-maximized="1" />
  <metadata
     id="metadata5">
    <rdf:RDF>
      <cc:Work
         rdf:about="">
        <dc:format>image/svg+xml</dc:format>
        <dc:type
           rdf:resource="http://purl.org/dc/dcmitype/StillImage" />
        <dc:title></dc:title>
      </cc:Work>
    </rdf:RDF>
  </metadata>
  <g
     inkscape:label="Layer 1"
     inkscape:groupmode="layer"
     id="layer1">
    <path
       style="fill:#000000;stroke-width:0.26458332"
       d="m 84.673498,183.77964 c -9.638259,-2.66873 -4.704187,-14.40375 -6.296657,-21.44842 -2.727247,-8.01641 -13.210829,-7.2581 -19.54494,-4.48138 -5.273258,3.14888 -10.908312,6.92785 -17.431767,5.74272 -8.985724,-0.70382 -16.7686,-8.92181 -15.767084,-18.13913 -1.738563,-7.63412 1.827004,-12.73792 7.023786,-17.50452 C 31.839844,120.85402 15.744113,120.77516 20.760537,112.12749 25.6015,107.74067 40.918629,98.424479 28.454456,93.746116 22.516121,90.869633 15.40199,86.334566 15.200368,79.01114 c 1.947941,-8.469012 12.941783,-10.277459 19.897413,-7.040238 6.668915,1.380054 10.549005,9.356269 17.332855,9.101932 9.70682,-4.547324 -3.942309,-16.615382 4.889118,-20.536279 8.324956,-3.439942 16.667266,3.509653 24.88828,0.630116 5.354324,-5.002002 11.53928,-12.064051 18.734416,-4.479982 5.82634,5.819668 14.78584,4.980582 18.86449,-2.305693 3.84242,-7.766366 12.72337,-6.696254 16.08388,0.836931 8.2095,6.249733 9.57069,20.0344 19.75347,22.989612 8.7338,1.340617 18.45651,-9.199278 25.95027,-1.298816 4.67178,6.661808 -2.08411,16.791945 8.18125,20.171005 7.32916,7.408192 -8.08891,14.911782 -4.61857,24.110652 1.07798,5.98164 8.29682,18.41019 -3.67338,15.42227 -5.37799,-1.66398 -9.62104,2.52267 -2.75814,5.42749 5.09841,4.14136 13.06844,12.75536 6.06363,18.59809 -9.14064,5.06712 -20.2762,6.16281 -30.3798,3.68217 -8.92537,1.30784 -11.58599,18.40322 -22.72208,11.26107 -5.93351,-3.6397 -13.13525,-1.56352 -13.59934,5.87489 -7.73065,5.28984 -17.75469,-6.29399 -6.20329,-9.32421 -6.37762,-5.73918 -8.42934,8.60915 -13.814281,10.66021 -4.087325,2.2304 -8.991136,1.89119 -13.397061,0.98728 z"
       id="path2708"
       inkscape:connector-curvature="0" />
    <path
       inkscape:connector-curvature="0"
       style="fill:#000000;stroke-width:0.26458332"
       d="m 157.59514,172.65252 c -0.0671,-0.25743 -0.12638,-0.11087 -0.13177,0.32569 -0.005,0.43657 0.0495,0.64719 0.12197,0.46806 0.0725,-0.17913 0.0769,-0.53632 0.01,-0.79375 z"
       id="path2614" />
    <path
       inkscape:connector-curvature="0"
       style="fill:#000000;stroke-width:0.26458332"
       d="m 20.428795,104.67442 c -0.17913,-0.0725 -0.53632,-0.0769 -0.79375,-0.01 -0.25743,0.0671 -0.11087,0.12638 0.3257,0.13177 0.43656,0.005 0.64718,-0.0495 0.46805,-0.12197 z"
       id="path1782" />
    <path
       style="fill:#000000;stroke-width:0.26458332"
       d="m 164.94687,74.861385 c -0.0676,-0.820564 -1.03707,-0.959494 -1.64771,-1.230727 -0.5521,-0.203035 -1.13246,-0.579265 -1.22147,-1.208413 -0.26438,-0.989271 -0.25245,-2.100884 0.25441,-3.013388 0.31024,-0.266985 1.1007,-0.224282 1.02093,-0.775163 -0.17994,0.163603 -0.90583,0.528787 -0.5298,10e-4 0.57014,-0.737788 1.56932,-0.816911 2.37253,-1.162925 2.23628,-0.737938 4.58648,-1.132159 6.93956,-1.183696 0.90774,0.06186 1.74851,0.705812 2.01585,1.580594 0.25235,0.490506 0.067,-0.65138 0.42904,-0.140308 0.58668,1.105256 0.7793,2.576393 0.0318,3.657153 -1.24077,1.746228 -3.2812,2.661041 -5.25877,3.301436 -1.41208,0.434491 -2.93653,0.549147 -4.38116,0.221655 l -0.0252,-0.04727 z"
       id="path1466"
       inkscape:connector-curvature="0" />
  </g>
</svg>
