<?xml version="1.0" encoding="UTF-8" standalone="no"?>
<!-- Created with Inkscape (http://www.inkscape.org/) -->

<svg
   xmlns:dc="http://purl.org/dc/elements/1.1/"
   xmlns:cc="http://creativecommons.org/ns#"
   xmlns:rdf="http://www.w3.org/1999/02/22-rdf-syntax-ns#"
   xmlns:svg="http://www.w3.org/2000/svg"
   xmlns="http://www.w3.org/2000/svg"
   xmlns:sodipodi="http://sodipodi.sourceforge.net/DTD/sodipodi-0.dtd"
   xmlns:inkscape="http://www.inkscape.org/namespaces/inkscape"
   width="210mm"
   height="297mm"
   viewBox="0 0 210 297"
   version="1.1"
   id="svg1116"
   inkscape:version="0.92.4 5da689c313, 2019-01-14"
   sodipodi:docname="mud_crack.svg">
  <defs
     id="defs1110" />
  <sodipodi:namedview
     id="base"
     pagecolor="#ffffff"
     bordercolor="#666666"
     borderopacity="1.0"
     inkscape:pageopacity="0.0"
     inkscape:pageshadow="2"
     inkscape:zoom="0.98994949"
     inkscape:cx="355.03433"
     inkscape:cy="631.70085"
     inkscape:document-units="mm"
     inkscape:current-layer="layer1"
     showgrid="false"
     inkscape:window-width="1920"
     inkscape:window-height="979"
     inkscape:window-x="0"
     inkscape:window-y="33"
     inkscape:window-maximized="1" />
  <metadata
     id="metadata1113">
    <rdf:RDF>
      <cc:Work
         rdf:about="">
        <dc:format>image/svg+xml</dc:format>
        <dc:type
           rdf:resource="http://purl.org/dc/dcmitype/StillImage" />
        <dc:title></dc:title>
      </cc:Work>
    </rdf:RDF>
  </metadata>
  <g
     inkscape:label="Layer 1"
     inkscape:groupmode="layer"
     id="layer1">
    <path
       style="fill:#000000;stroke-width:0.99999994"
       clip-path="none"
       d="M 426.73828 453.53125 C 430.39562 453.69697 437.93713 464.33911 446.17383 480.96875 C 450.53245 489.76874 453.78513 497.26771 453.40234 497.63281 C 453.01952 497.99803 447.08008 499.73695 440.20508 501.49609 C 433.33008 503.25524 427.27838 505.09387 426.75586 505.58203 C 426.74363 505.59346 426.72254 505.60391 426.70898 505.61523 L 426.70898 512.60156 C 428.77261 512.22896 430.95715 511.8404 432.70508 511.51367 C 438.75508 510.3828 446.18006 509.03186 449.20508 508.51172 C 452.23006 507.99158 457.49855 507.08657 460.91211 506.50195 C 463.28853 506.09493 465.0098 505.87042 466.82812 505.92383 C 469.85868 506.01284 473.1577 506.8737 480.20508 508.94727 C 492.27628 512.499 495.91029 513.51345 500.70508 514.66602 C 503.4551 515.32705 505.92993 516.13722 506.20508 516.4668 C 506.48008 516.79649 508.64122 517.63268 511.00781 518.32422 C 516.9089 520.04851 517.25092 521.81736 512.58789 526.50586 C 510.45257 528.6529 508.13899 530.98548 507.44727 531.68945 C 506.7555 532.39347 503.86802 535.33127 501.0293 538.21875 C 498.19057 541.10627 495.503 543.46875 495.05664 543.46875 C 494.61028 543.46875 491.87283 544.98207 488.97461 546.83203 C 486.07643 548.682 479.88005 552.09072 475.20508 554.40625 C 462.42574 560.73579 463.4536 560.60432 456.5625 556.79883 C 449.1262 552.69237 438.68384 551.16553 427.20508 552.50586 C 427.0254 552.52684 426.88547 552.53829 426.70898 552.55859 L 426.70898 558.08594 C 433.01121 556.91356 442.20508 556.18342 442.20508 556.96289 C 442.20508 558.31192 436.49863 579.42202 431.66016 595.96875 C 429.9012 601.98399 428.9067 605.40389 427.81641 609.14844 L 434.45898 609.14844 C 435.85838 603.50318 438.81364 592.38706 445.26953 568.21875 C 446.80685 562.46366 448.08871 559.46875 449.01562 559.46875 C 449.79073 559.46875 453.05072 560.86965 456.25977 562.58008 C 462.88618 566.11193 462.47663 565.11047 464.64062 582.99414 C 465.96257 593.91895 467.04591 601.59372 468.36719 609.14844 L 474.32812 609.14844 C 474.31206 609.0836 474.29937 609.03618 474.2832 608.9707 C 473.73986 606.77072 472.59767 602.27068 471.74414 598.9707 C 468.87552 587.88002 466.32017 575.61591 465.6543 569.73047 C 465.00815 564.01926 465.05794 563.85815 467.84961 562.55273 C 478.7193 557.46999 494.41836 551.54296 497.13281 551.49609 C 497.91759 551.48256 500.16757 553.00326 502.13281 554.875 C 504.09805 556.74674 509.75507 561.86551 514.70508 566.25195 C 519.65509 570.63844 526.36808 576.66764 529.62305 579.64844 L 535.54102 585.06836 L 532.94141 590.51953 C 531.51123 593.51802 529.18573 597.52164 527.77344 599.41602 C 526.36114 601.31035 525.20508 603.86898 525.20508 605.10156 C 525.20508 605.61245 525.91936 607.10869 527.07227 609.14844 L 530.39062 609.14844 L 528.10156 605.71484 L 529.99805 600.31836 C 531.04116 597.35049 533.124 592.97739 534.625 590.59961 L 537.35352 586.27734 L 545.5293 586.98828 C 550.02607 587.37976 554.6922 588.21126 555.89844 588.83594 C 557.10464 589.46062 560.98755 592.78322 564.52734 596.2207 C 570.44881 601.97114 573.20508 603.70404 573.20508 601.67383 C 573.20508 601.23484 569.49259 596.95653 564.95508 592.16602 L 556.70508 583.45508 L 547.39453 583.46289 L 538.08594 583.4707 L 532.5332 578.2207 C 529.47942 575.33318 523.09544 568.47071 518.3457 562.9707 C 513.59597 557.4707 509.45029 552.74585 509.13281 552.4707 C 508.81533 552.1957 507.73601 550.56355 506.73633 548.84375 C 504.49734 544.99184 504.63028 544.76934 516.3125 532.80078 L 524.62305 524.28711 L 527.58203 526.0332 C 529.20863 526.99407 531.87952 529.3079 533.51953 531.17578 C 535.15958 533.04366 537.67266 535.18502 539.10352 535.93359 C 540.53437 536.68213 544.63006 540.0427 548.20508 543.40039 C 557.07087 551.72737 567.97745 561.72256 572.20508 565.39648 L 575.70508 568.4375 L 582.32617 568.44141 L 582.32617 563.40039 L 578.16602 563.39648 L 570.43555 556.35352 C 566.18403 552.47988 562.37571 548.72561 561.97266 548.00977 C 561.56957 547.29396 556.61957 542.72638 550.97266 537.85938 C 545.32574 532.99233 538.91115 527.31196 536.7168 525.23828 C 534.52248 523.16464 532.18542 521.46875 531.52344 521.46875 C 530.86149 521.46875 529.67161 520.54496 528.88086 519.41602 C 526.89185 516.57631 528.27603 514.08197 535.13281 508.14062 C 538.84838 504.92085 540.34363 503.84767 542.17188 503.72266 C 542.78128 503.68098 543.42728 503.74497 544.20508 503.86914 C 547.9737 504.47083 573.63754 507.36609 582.32617 508.21094 L 582.32617 503.30664 C 572.797 502.77208 545.46173 499.03964 544.47461 498.10352 C 543.14044 496.83832 539.02233 482.53193 538.82617 478.48047 C 538.72163 476.32213 539.23642 475.90543 542.70508 475.34375 C 544.90507 474.98753 551.20507 473.98497 556.70508 473.11719 C 562.20508 472.24937 570.98011 470.83611 576.20508 469.97461 C 577.76006 469.71823 579.93458 469.38806 582.32617 469.03516 L 582.32617 464.89258 C 578.51045 465.5282 574.91328 466.11092 572.70508 466.43555 C 568.8551 467.00153 559.72882 468.52499 552.42383 469.82031 C 542.97841 471.49517 538.93459 471.85674 538.42383 471.07227 C 538.01536 470.44482 537.90766 461.89324 538.00977 453.53125 L 532.32031 453.53125 C 532.11202 468.00053 532.37549 473.48877 533.50781 477.53516 C 534.34426 480.52408 535.64645 486.40021 536.40039 490.59375 L 537.76953 498.21875 L 532.73828 502.84375 C 529.9705 505.38767 526.15609 508.59368 524.26172 509.96875 C 522.36738 511.34378 520.11737 512.41739 519.26172 512.35352 C 516.3745 512.13842 469.35642 499.95212 468.63672 499.23242 C 468.07803 498.67373 473.41407 491.05141 476.17188 488.46875 C 476.4655 488.19375 480.50898 483.24375 485.15625 477.46875 C 489.80352 471.69378 493.85351 466.7439 494.15625 466.46875 C 495.60213 465.15531 501.11214 458.14439 504.49023 453.53125 L 494.08008 453.53125 C 493.10858 454.86841 491.50428 456.87684 489.52734 459.17383 C 486.29199 462.93291 480.91295 469.59946 477.57227 473.98828 C 474.23162 478.37714 469.28153 485.4414 466.57422 489.68555 L 461.65234 497.40234 L 459.14062 494.18555 C 457.75948 492.41635 454.42508 487.36876 451.73047 482.96875 C 449.03585 478.56878 443.82034 470.45419 440.14062 464.93555 C 437.17103 460.48192 434.78318 456.69649 432.93359 453.53125 L 426.73828 453.53125 z "
       transform="scale(0.26458333)"
       id="path2774" />
  </g>
</svg>
