<?xml version="1.0" encoding="UTF-8" standalone="no"?>
<svg
   xmlns:dc="http://purl.org/dc/elements/1.1/"
   xmlns:cc="http://creativecommons.org/ns#"
   xmlns:rdf="http://www.w3.org/1999/02/22-rdf-syntax-ns#"
   xmlns:svg="http://www.w3.org/2000/svg"
   xmlns="http://www.w3.org/2000/svg"
   xmlns:sodipodi="http://sodipodi.sourceforge.net/DTD/sodipodi-0.dtd"
   xmlns:inkscape="http://www.inkscape.org/namespaces/inkscape"
   sodipodi:docname="seed_germination.svg"
   inkscape:version="1.0beta1 (1a794d5274, 2019-11-01)"
   id="svg8"
   version="1.1"
   viewBox="0 0 210 297"
   height="297mm"
   width="210mm">
  <defs
     id="defs2" />
  <sodipodi:namedview
     inkscape:document-rotation="0"
     inkscape:window-maximized="1"
     inkscape:window-y="33"
     inkscape:window-x="0"
     inkscape:window-height="979"
     inkscape:window-width="1920"
     showgrid="false"
     inkscape:current-layer="layer1"
     inkscape:document-units="mm"
     inkscape:cy="495"
     inkscape:cx="582.85714"
     inkscape:zoom="0.49497475"
     inkscape:pageshadow="2"
     inkscape:pageopacity="0.0"
     borderopacity="1.0"
     bordercolor="#666666"
     pagecolor="#ffffff"
     id="base" />
  <metadata
     id="metadata5">
    <rdf:RDF>
      <cc:Work
         rdf:about="">
        <dc:format>image/svg+xml</dc:format>
        <dc:type
           rdf:resource="http://purl.org/dc/dcmitype/StillImage" />
        <dc:title></dc:title>
      </cc:Work>
    </rdf:RDF>
  </metadata>
  <g
     id="layer1"
     inkscape:groupmode="layer"
     inkscape:label="Layer 1">
    <path
       transform="scale(0.26458333)"
       d="M 409.40625 263.57617 C 401.30245 263.3994 393.15527 269.5958 392.98633 282.41016 L 392.44922 323.17383 C 379.63099 310.69584 365.77078 299.03138 349.63867 291.05469 C 310.82075 270.32089 262.94869 272.37721 224.29688 292.48828 C 224.87201 319.51676 232.4673 346.54495 247.99414 368.85938 C 278.41272 415.17512 338.11105 438.7189 392.00781 426.0918 L 392.62891 494.86914 L 355.68164 537.19531 L 408.57031 660.07031 L 461.8125 537.42969 L 426.47656 496.47656 L 425.57227 452.72656 C 425.57227 452.72656 445.76259 464.22942 467.24414 462.39453 C 534.33703 456.66367 592.58492 397.18531 592.55469 329.39648 C 580.08353 315.70209 554.4832 311.04723 534.98242 310.66602 C 493.66043 306.86614 453.21017 326.59396 425.57227 356.54492 L 425.57227 282.98828 C 425.57225 270.30301 417.51005 263.75294 409.40625 263.57617 z M 504.55859 521.87891 L 423.82422 725.60352 C 417.80457 740.7934 407.80099 742.90136 399.71484 724.20898 L 312.5957 522.82031 C 274.40682 552.75202 254.43613 603.5012 259.24219 651.58008 C 263.06656 697.7715 290.82537 739.69243 329.47461 764.19141 L 501.02734 754.82617 C 520.4083 739.81895 536.1723 720.11832 545.9375 696.94922 C 572.55327 637.78249 555.15774 562.75567 504.55859 521.87891 z "
       style="fill:#000000;stroke-width:1"
       id="path826" />
    <path
       sodipodi:nodetypes="cc"
       inkscape:connector-curvature="0"
       id="path908"
       d="m 35.718537,199.55068 c 26.889095,11.41376 104.150163,-7.14036 141.611443,2.41727"
       style="fill:none;stroke:#000000;stroke-width:6.17769;stroke-linecap:butt;stroke-linejoin:miter;stroke-miterlimit:4;stroke-dasharray:none;stroke-opacity:1" />
  </g>
</svg>
