<?xml version="1.0" encoding="UTF-8" standalone="no"?>
<!-- Created with Inkscape (http://www.inkscape.org/) -->

<svg
   xmlns:dc="http://purl.org/dc/elements/1.1/"
   xmlns:cc="http://creativecommons.org/ns#"
   xmlns:rdf="http://www.w3.org/1999/02/22-rdf-syntax-ns#"
   xmlns:svg="http://www.w3.org/2000/svg"
   xmlns="http://www.w3.org/2000/svg"
   xmlns:sodipodi="http://sodipodi.sourceforge.net/DTD/sodipodi-0.dtd"
   xmlns:inkscape="http://www.inkscape.org/namespaces/inkscape"
   width="210mm"
   height="297mm"
   viewBox="0 0 210 297"
   version="1.1"
   id="svg8"
   inkscape:version="0.92.4 5da689c313, 2019-01-14"
   sodipodi:docname="seed_germination.svg">
  <defs
     id="defs2" />
  <sodipodi:namedview
     id="base"
     pagecolor="#ffffff"
     bordercolor="#666666"
     borderopacity="1.0"
     inkscape:pageopacity="0.0"
     inkscape:pageshadow="2"
     inkscape:zoom="1.4"
     inkscape:cx="582.85714"
     inkscape:cy="495"
     inkscape:document-units="mm"
     inkscape:current-layer="layer1"
     showgrid="false"
     inkscape:window-width="1920"
     inkscape:window-height="979"
     inkscape:window-x="0"
     inkscape:window-y="33"
     inkscape:window-maximized="1" />
  <metadata
     id="metadata5">
    <rdf:RDF>
      <cc:Work
         rdf:about="">
        <dc:format>image/svg+xml</dc:format>
        <dc:type
           rdf:resource="http://purl.org/dc/dcmitype/StillImage" />
        <dc:title></dc:title>
      </cc:Work>
    </rdf:RDF>
  </metadata>
  <g
     inkscape:label="Layer 1"
     inkscape:groupmode="layer"
     id="layer1">
    <path
       style="fill:#000000;stroke-width:0.26458332"
       d="M 103.96098,207.99903 C 85.713144,206.3599 70.101447,190.63574 68.591402,172.39718 67.319798,159.67631 72.603659,146.24912 82.7078,138.32969 l 23.0502,53.28395 c 2.13946,4.94569 4.78591,4.3878 6.37861,0.36881 l 21.36109,-53.90213 c 13.38769,10.81531 17.99034,30.66632 10.94825,46.32085 -6.61605,15.69737 -23.64112,25.37739 -40.48497,23.59786 z m -9.853484,-65.86628 9.775524,-11.19883 -0.1643,-18.19732 C 89.458535,116.07752 73.663599,109.84825 65.615349,97.593877 61.507207,91.689853 59.497357,84.538603 59.345187,77.387317 69.571812,72.066263 82.23779,71.522499 92.508364,77.008316 c 4.268288,2.110499 7.935706,5.196848 11.327196,8.498317 l 0.14229,-10.78537 c 0.0894,-6.780932 8.62122,-6.559699 8.62123,0.152926 l 4e-5,19.46146 c 7.31253,-7.924525 18.01508,-13.144128 28.94819,-12.138744 5.15958,0.100862 11.93288,1.332562 15.23254,4.955871 0.008,17.935794 -15.40292,33.672694 -33.15458,35.188984 -5.68366,0.48548 -11.02587,-2.5576 -11.02587,-2.5576 l 0.23925,11.57516 9.34923,10.83582 -14.08679,32.44835 z"
       id="path826"
       inkscape:connector-curvature="0"
       sodipodi:nodetypes="cccssccccccccccsscccsccccc" />
  </g>
</svg>
