<?xml version="1.0" encoding="UTF-8" standalone="no"?>
<svg
   xmlns:dc="http://purl.org/dc/elements/1.1/"
   xmlns:cc="http://creativecommons.org/ns#"
   xmlns:rdf="http://www.w3.org/1999/02/22-rdf-syntax-ns#"
   xmlns:svg="http://www.w3.org/2000/svg"
   xmlns="http://www.w3.org/2000/svg"
   xmlns:sodipodi="http://sodipodi.sourceforge.net/DTD/sodipodi-0.dtd"
   xmlns:inkscape="http://www.inkscape.org/namespaces/inkscape"
   inkscape:output_extension="org.inkscape.output.svg.inkscape"
   sodipodi:docname="walkway.svg"
   version="1.0"
   inkscape:version="1.0beta1 (a4ee55bc41, 2019-11-15)"
   sodipodi:version="0.32"
   id="svg5294"
   height="256"
   width="256">
  <defs
     id="defs5296">
    <inkscape:perspective
       id="perspective5302"
       inkscape:persp3d-origin="372.04724 : 350.78739 : 1"
       inkscape:vp_z="744.09448 : 526.18109 : 1"
       inkscape:vp_y="0 : 1000 : 0"
       inkscape:vp_x="0 : 526.18109 : 1"
       sodipodi:type="inkscape:persp3d" />
  </defs>
  <sodipodi:namedview
     inkscape:window-maximized="1"
     inkscape:document-rotation="0"
     inkscape:window-y="36"
     inkscape:window-x="0"
     inkscape:window-height="2060"
     inkscape:window-width="3840"
     showgrid="false"
     inkscape:current-layer="layer1"
     inkscape:document-units="px"
     inkscape:cy="62.857143"
     inkscape:cx="112.80911"
     inkscape:zoom="2.8"
     inkscape:pageshadow="2"
     inkscape:pageopacity="0.0"
     objecttolerance="10"
     guidetolerance="10"
     gridtolerance="10000"
     borderopacity="1.0"
     bordercolor="#666666"
     pagecolor="#ffffff"
     id="base" />
  <metadata
     id="metadata5299">
    <rdf:RDF>
      <cc:Work
         rdf:about="">
        <dc:format>image/svg+xml</dc:format>
        <dc:type
           rdf:resource="http://purl.org/dc/dcmitype/StillImage" />
        <dc:title></dc:title>
      </cc:Work>
    </rdf:RDF>
  </metadata>
  <g
     id="layer1"
     inkscape:groupmode="layer"
     inkscape:label="Layer 1">
    <g
       style="fill:#000000;stroke:none"
       transform="matrix(25.900445,0,0,-25.900445,134.32984,53.145434)"
       id="g8150">
      <path
         id="path8152"
         style="fill:#000000;fill-opacity:1;fill-rule:nonzero;stroke:none"
         d="M 0,0 C 0.326,-0.025 0.611,0.219 0.637,0.543 C 0.663,0.869 0.42,1.154 0.094,1.18 C -0.232,1.205 -0.518,0.963 -0.543,0.637 C -0.568,0.311 -0.325,0.025 0,0" />
    </g>
    <g
       style="fill:#000000;stroke:none"
       transform="matrix(25.900445,0,0,-25.900445,121.35393,59.4179)"
       id="g8154">
      <path
         id="path8156"
         style="fill:#000000;fill-opacity:1;fill-rule:nonzero;stroke:none"
         d="M 0,0 C 0.116,0.08 0.26,0.135 0.415,0.123 C 0.618,0.105 0.786,-0.02 0.886,-0.174 L 1.484,-1.357 L 2.298,-1.918 C 2.368,-1.971 2.41,-2.059 2.403,-2.152 C 2.392,-2.299 2.263,-2.408 2.115,-2.396 C 2.071,-2.395 2.036,-2.377 1.993,-2.357 L 1.104,-1.746 C 1.077,-1.723 1.056,-1.697 1.038,-1.666 L 0.813,-1.223 L 0.547,-2.404 L 1.597,-3.645 C 1.62,-3.684 1.636,-3.727 1.646,-3.771 L 1.929,-5.27 C 1.928,-5.303 1.933,-5.324 1.931,-5.352 C 1.913,-5.572 1.72,-5.736 1.499,-5.719 C 1.317,-5.705 1.181,-5.568 1.138,-5.402 L 0.87,-3.998 L 0.019,-3.064 L -0.181,-3.975 C -0.187,-4.018 -0.243,-4.107 -0.261,-4.145 L -1.078,-5.523 C -1.161,-5.65 -1.297,-5.73 -1.454,-5.719 C -1.675,-5.701 -1.84,-5.508 -1.822,-5.287 C -1.817,-5.225 -1.791,-5.16 -1.769,-5.115 L -1.007,-3.838 L -0.374,-1.025 L -0.788,-1.361 L -1.007,-2.363 C -1.036,-2.49 -1.153,-2.596 -1.292,-2.584 C -1.438,-2.572 -1.549,-2.445 -1.538,-2.297 L -1.532,-2.262 L -1.271,-1.094 C -1.257,-1.041 -1.228,-0.998 -1.188,-0.965 L 0,0 z" />
    </g>
    <path
       id="path8158"
       style="fill:#000000;fill-opacity:1;fill-rule:nonzero;stroke:none"
       d="M 40.886401,181.03375 L 25.11303,181.03375 L 25.11303,168.49794 L 40.886401,168.49794 L 40.886401,181.03375 z" />
    <path
       id="path8160"
       style="fill:#000000;fill-opacity:1;fill-rule:nonzero;stroke:none"
       d="M 72.044637,181.03375 L 56.271266,181.03375 L 56.271266,168.49794 L 72.044637,168.49794 L 72.044637,181.03375 z" />
    <path
       id="path8162"
       style="fill:#000000;fill-opacity:1;fill-rule:nonzero;stroke:none"
       d="M 134.77552,181.03375 L 119.00214,181.03375 L 119.00214,168.49794 L 134.77552,168.49794 L 134.77552,181.03375 z" />
    <path
       id="path8164"
       style="fill:#000000;fill-opacity:1;fill-rule:nonzero;stroke:none"
       d="M 197.9208,181.03375 L 182.14743,181.03375 L 182.14743,168.49794 L 197.9208,168.49794 L 197.9208,181.03375 z" />
    <path
       id="path8166"
       style="fill:#000000;fill-opacity:1;fill-rule:nonzero;stroke:none"
       d="M 229.07904,181.03375 L 213.30566,181.03375 L 213.30566,168.49794 L 229.07904,168.49794 L 229.07904,181.03375 z" />
    <path
       id="path8168"
       style="fill:#000000;fill-opacity:1;fill-rule:nonzero;stroke:none"
       d="M 40.886401,226.74804 L 25.11303,226.74804 L 25.11303,214.21222 L 40.886401,214.21222 L 40.886401,226.74804 z" />
    <path
       id="path8170"
       style="fill:#000000;fill-opacity:1;fill-rule:nonzero;stroke:none"
       d="M 72.044637,226.74804 L 56.271266,226.74804 L 56.271266,214.21222 L 72.044637,214.21222 L 72.044637,226.74804 z" />
    <path
       id="path8172"
       style="fill:#000000;fill-opacity:1;fill-rule:nonzero;stroke:none"
       d="M 103.61728,226.74804 L 87.843908,226.74804 L 87.843908,214.21222 L 103.61728,214.21222 L 103.61728,226.74804 z" />
    <path
       id="path8174"
       style="fill:#000000;fill-opacity:1;fill-rule:nonzero;stroke:none"
       d="M 166.76256,226.74804 L 150.98919,226.74804 L 150.98919,214.21222 L 166.76256,214.21222 L 166.76256,226.74804 z" />
    <path
       id="path8176"
       style="fill:#000000;fill-opacity:1;fill-rule:nonzero;stroke:none"
       d="M 134.77552,226.74804 L 119.00214,226.74804 L 119.00214,214.21222 L 134.77552,214.21222 L 134.77552,226.74804 z" />
    <path
       id="path8178"
       style="fill:#000000;fill-opacity:1;fill-rule:nonzero;stroke:none"
       d="M 197.9208,226.74804 L 182.14743,226.74804 L 182.14743,214.21222 L 197.9208,214.21222 L 197.9208,226.74804 z" />
    <path
       id="path8180"
       style="fill:#000000;fill-opacity:1;fill-rule:nonzero;stroke:none"
       d="M 229.07904,226.74804 L 213.30566,226.74804 L 213.30566,214.21222 L 229.07904,214.21222 L 229.07904,226.74804 z" />
  </g>
</svg>
