<?xml version="1.0" encoding="UTF-8" standalone="no"?>
<!-- Created with Inkscape (http://www.inkscape.org/) -->

<svg
   xmlns:dc="http://purl.org/dc/elements/1.1/"
   xmlns:cc="http://creativecommons.org/ns#"
   xmlns:rdf="http://www.w3.org/1999/02/22-rdf-syntax-ns#"
   xmlns:svg="http://www.w3.org/2000/svg"
   xmlns="http://www.w3.org/2000/svg"
   xmlns:sodipodi="http://sodipodi.sourceforge.net/DTD/sodipodi-0.dtd"
   xmlns:inkscape="http://www.inkscape.org/namespaces/inkscape"
   width="210mm"
   height="297mm"
   viewBox="0 0 210 297"
   version="1.1"
   id="svg5463"
   inkscape:version="0.92.4 5da689c313, 2019-01-14"
   sodipodi:docname="water_drip.svg">
  <defs
     id="defs5457" />
  <sodipodi:namedview
     id="base"
     pagecolor="#ffffff"
     bordercolor="#666666"
     borderopacity="1.0"
     inkscape:pageopacity="0.0"
     inkscape:pageshadow="2"
     inkscape:zoom="0.35"
     inkscape:cx="-171.42857"
     inkscape:cy="560"
     inkscape:document-units="mm"
     inkscape:current-layer="layer1"
     showgrid="false"
     inkscape:window-width="1920"
     inkscape:window-height="979"
     inkscape:window-x="0"
     inkscape:window-y="33"
     inkscape:window-maximized="1" />
  <metadata
     id="metadata5460">
    <rdf:RDF>
      <cc:Work
         rdf:about="">
        <dc:format>image/svg+xml</dc:format>
        <dc:type
           rdf:resource="http://purl.org/dc/dcmitype/StillImage" />
        <dc:title></dc:title>
      </cc:Work>
    </rdf:RDF>
  </metadata>
  <g
     inkscape:label="Layer 1"
     inkscape:groupmode="layer"
     id="layer1">
    <path
       style="fill:#000000;stroke-width:0.26458332"
       d="m 90.222921,211.665 c -9.50396,-1.15008 -17.35618,-5.29537 -24.20402,-12.77763 -4.69718,-5.13235 -6.6902,-9.60142 -7.27086,-16.3039 -0.48137,-5.55642 0.62479,-12.29672 2.89752,-17.65583 1.49384,-3.52249 6.31274,-12.87916 15.03413,-29.19119 9.91996,-18.55376 12.1489,-23.33057 14.82608,-31.7735 1.674,-5.279248 3.47965,-13.587152 3.47965,-16.010081 0,-0.494862 0.11906,-0.899749 0.26458,-0.899749 0.14553,0 0.26459,0.404887 0.26459,0.899749 0,2.422929 1.80565,10.730833 3.47965,16.010081 2.673739,8.43207 4.920479,13.24896 14.725749,31.57123 8.77938,16.40527 14.24059,27.0655 15.49539,30.24686 3.3244,8.42857 3.511,18.27118 0.48301,25.478 -1.22625,2.91857 -3.12818,5.49668 -6.66713,9.03743 -6.10368,6.1068 -12.56985,9.60772 -20.30444,10.99326 -2.786719,0.4992 -9.752239,0.70825 -12.503899,0.37527 z m 12.964589,-6.8532 c 3.59561,-0.79719 7.14266,-2.31236 10.33669,-4.41545 5.74762,-3.7845 9.90168,-9.00951 11.65919,-14.66504 0.93571,-3.01106 0.88545,-7.43883 -0.12283,-10.82054 -2.00628,-6.72895 -6.43585,-15.88222 -11.91553,-24.62223 -2.14816,-3.42631 -5.179,-7.9375 -5.33279,-7.9375 -0.0693,0 0.69082,1.6371 1.68907,3.63802 4.75124,9.52348 7.82683,18.65763 8.92792,26.51485 0.61783,4.40886 0.39153,10.59784 -0.51511,14.087 -0.79284,3.05121 -2.36431,6.51723 -3.97521,8.76768 -2.92411,4.08505 -7.68282,7.50748 -12.91872,9.29104 -1.648989,0.56171 -1.797369,0.65886 -1.00769,0.65975 0.50933,5.3e-4 1.93808,-0.22334 3.17501,-0.49758 z m -57.414589,-0.43165 c -3.73656,-0.80495 -6.05405,-2.68602 -6.28624,-5.10244 -0.1698,-1.76715 0.32088,-3.08566 1.63881,-4.40358 2.77318,-2.77318 6.96651,-1.79529 10.69789,2.49477 1.79956,2.069 4.07713,3.8061 6.40255,4.88321 l 1.86298,0.86292 -2.59393,0.57688 c -5.22861,1.16281 -8.60017,1.36077 -11.72206,0.68824 z m -2.61696,-7.68571 c 0.34792,-0.3067 1.10884,-0.88217 1.69092,-1.27882 l 1.05834,-0.72117 -0.92605,0.1862 c -1.87256,0.37652 -2.86414,1.16595 -3.56178,2.83563 -0.66733,1.59714 -0.47356,1.99191 0.3495,0.71208 0.41606,-0.64696 1.04114,-1.42722 1.38907,-1.73392 z m 94.030509,7.82611 c -0.87313,-0.13316 -2.75477,-0.50387 -4.18144,-0.82381 l -2.59393,-0.58171 1.86298,-0.86292 c 2.34372,-1.08558 4.61341,-2.82296 6.41947,-4.91389 2.60982,-3.02146 5.79094,-4.52238 8.26473,-3.89948 3.21268,0.80897 5.02984,4.56219 3.58246,7.3993 -1.17671,2.30652 -4.39141,3.67673 -8.98865,3.83125 -1.52797,0.0514 -3.4925,-0.0156 -4.36562,-0.14874 z m 12.04475,-6.45588 c -0.58744,-1.77997 -1.76947,-2.79419 -3.71038,-3.18363 -0.92214,-0.18502 -0.92035,-0.1819 0.42239,0.74156 1.42871,0.98256 2.62976,2.26098 3.10588,3.30596 0.406,0.89107 0.54449,0.23411 0.18211,-0.86389 z m -94.537719,-6.50354 c -2.2157,-1.74287 -7.27697,-3.22482 -14.79083,-4.33079 -5.72393,-0.84251 -7.152,-1.34363 -9.18021,-3.22139 -2.19961,-2.03645 -3.05649,-3.99615 -3.05966,-6.9975 -0.003,-2.73715 0.74933,-4.61355 2.58569,-6.4499 1.45057,-1.45058 2.78857,-2.15619 5.1339,-2.70744 7.39487,-1.73811 14.19597,4.50472 18.20338,16.70914 0.91381,2.78297 2.0545,7.2753 1.88929,7.44051 -0.053,0.053 -0.4047,-0.14619 -0.78156,-0.44263 z m -21.98185,-17.90186 c 2.04457,-1.59768 3.83998,-2.39565 7.76961,-3.4532 0.9161,-0.24654 0.90853,-0.25136 -0.7053,-0.44947 -2.9143,-0.35776 -6.41456,0.78279 -7.9302,2.58403 -0.77302,0.91869 -1.79607,2.90045 -2.0584,3.98737 -0.16578,0.6869 -0.0715,0.62654 0.85765,-0.54888 0.57415,-0.72636 1.50414,-1.68029 2.06664,-2.11985 z m 102.225859,18.3543 c 0,-0.52473 1.2515,-5.24164 1.97673,-7.45032 4.00741,-12.20442 10.80851,-18.44725 18.20339,-16.70914 2.34532,0.55125 3.68332,1.25686 5.13389,2.70744 1.83636,1.83635 2.58859,3.71275 2.58569,6.4499 -0.003,3.00135 -0.86004,4.96105 -3.05966,6.9975 -2.0282,1.87776 -3.45628,2.37888 -9.18021,3.22139 -7.53288,1.10877 -12.46523,2.57863 -15.06452,4.4893 -0.32742,0.24069 -0.59531,0.37295 -0.59531,0.29393 z m 25.76406,-15.72972 c -0.25203,-1.0468 -1.28625,-3.03875 -2.04731,-3.94322 -1.51565,-1.80124 -5.0159,-2.94179 -7.93021,-2.58403 -1.61383,0.19811 -1.62139,0.20293 -0.70529,0.44947 5.22724,1.40676 8.23092,3.15369 10.07319,5.85855 0.35334,0.51877 0.67446,0.94403 0.71362,0.94502 0.0392,0.001 -0.008,-0.32561 -0.104,-0.72579 z"
       id="path6073"
       inkscape:connector-curvature="0" />
  </g>
</svg>
