<?xml version="1.0" encoding="UTF-8" standalone="no"?>
<!-- Created with Inkscape (http://www.inkscape.org/) -->

<svg
   xmlns:dc="http://purl.org/dc/elements/1.1/"
   xmlns:cc="http://creativecommons.org/ns#"
   xmlns:rdf="http://www.w3.org/1999/02/22-rdf-syntax-ns#"
   xmlns:svg="http://www.w3.org/2000/svg"
   xmlns="http://www.w3.org/2000/svg"
   xmlns:sodipodi="http://sodipodi.sourceforge.net/DTD/sodipodi-0.dtd"
   xmlns:inkscape="http://www.inkscape.org/namespaces/inkscape"
   width="210mm"
   height="297mm"
   viewBox="0 0 210 297"
   version="1.1"
   id="svg8"
   inkscape:version="0.92.4 (unknown)"
   sodipodi:docname="wheelchair.svg">
  <defs
     id="defs2" />
  <sodipodi:namedview
     id="base"
     pagecolor="#ffffff"
     bordercolor="#666666"
     borderopacity="1.0"
     inkscape:pageopacity="0.0"
     inkscape:pageshadow="2"
     inkscape:zoom="0.35"
     inkscape:cx="-251.42857"
     inkscape:cy="548.57143"
     inkscape:document-units="mm"
     inkscape:current-layer="layer1"
     showgrid="false"
     inkscape:window-width="3840"
     inkscape:window-height="2086"
     inkscape:window-x="0"
     inkscape:window-y="50"
     inkscape:window-maximized="1" />
  <metadata
     id="metadata5">
    <rdf:RDF>
      <cc:Work
         rdf:about="">
        <dc:format>image/svg+xml</dc:format>
        <dc:type
           rdf:resource="http://purl.org/dc/dcmitype/StillImage" />
        <dc:title></dc:title>
      </cc:Work>
    </rdf:RDF>
  </metadata>
  <g
     inkscape:label="Layer 1"
     inkscape:groupmode="layer"
     id="layer1">
    <path
       style="fill:#000000;stroke-width:0.26458332"
       d="m 91.810422,197.51567 c -4.25261,-0.48626 -6.03207,-0.77216 -8.25051,-1.32559 -18.06769,-4.50736 -32.10682,-19.3504 -35.01412,-37.0191 -3.14507,-19.11368 6.14288,-37.68227 23.68546,-47.35226 4.81457,-2.65394 7.40619,-3.48055 9.50268,-3.03093 3.20394,0.68712 5.1476,3.55407 4.4896,6.62226 -0.40157,1.87247 -1.65703,3.15619 -4.12066,4.21346 -10.16875,4.36391 -17.25557,11.72489 -20.68294,21.48307 -1.29421,3.6848 -1.73484,6.44652 -1.72129,10.78836 0.0185,5.93262 1.00456,10.08057 3.60867,15.18053 4.80308,9.40649 13.78956,16.17681 24.66665,18.58361 2.89637,0.64088 10.04627,0.78162 13.096868,0.25779 14.1119,-2.4232 25.13739,-12.17137 28.9843,-25.62643 0.66308,-2.31918 1.39992,-3.5444 2.64446,-4.39717 1.8876,-1.2934 3.97729,-1.3261 6.26181,-0.098 2.99802,1.61167 3.4747,4.25692 1.70494,9.46111 -1.05752,3.10976 -3.37351,8.14887 -4.74253,10.31875 -7.05135,11.17637 -18.69593,18.88724 -32.20715,21.32713 -2.64712,0.47803 -9.846398,0.84892 -11.906238,0.6134 z m 72.953508,-10.85602 c -2.36998,-0.7286 -2.81643,-1.39139 -13.29826,-19.74239 l -9.7813,-17.12454 -18.00979,-0.007 c -19.7826,-0.008 -19.42349,0.0187 -21.90211,-1.62309 -1.61492,-1.06968 -2.990028,-2.87759 -3.484718,-4.5815 -0.76636,-2.63967 -8.32942,-39.61035 -8.32942,-40.71693 0,-4.025189 2.52938,-7.773349 6.50078,-9.633199 1.41722,-0.6637 1.85057,-0.73479 4.479428,-0.73479 2.74057,0 3.01191,0.0497 4.6497,0.85114 2.10938,1.03226 4.23315,3.17937 5.17093,5.22776 0.36513,0.79755 0.9868,3.149349 1.38148,5.226219 l 0.7176,3.77613 12.03181,0.13229 12.03181,0.13229 1.2627,0.74223 c 1.73904,1.02224 2.64604,2.46675 2.78889,4.44169 0.18342,2.5357 -0.79629,4.32099 -2.96399,5.4012 l -1.32379,0.65967 h -10.66872 -10.66871 l 0.13922,0.59532 c 0.0766,0.32742 0.67991,3.27421 1.34075,6.54843 0.66083,3.27422 1.26718,6.21693 1.34743,6.53935 l 0.1459,0.58623 13.53956,0.0752 13.53956,0.0752 1.71372,0.8444 c 0.94255,0.46442 2.09437,1.23833 2.5596,1.71979 1.02083,1.05647 23.51853,40.00569 24.19392,41.88581 0.93926,2.61468 0.38588,5.02661 -1.61157,7.02406 -1.97177,1.97177 -4.6143,2.56402 -7.49241,1.6792 z M 93.671452,88.765191 c -4.56905,-1.22792 -8.57858,-5.35068 -9.65833,-9.93109 -1.10758,-4.698439 0.15993,-8.99674 3.69566,-12.532465 2.97508,-2.975084 6.6757,-4.381325 10.57221,-4.017462 4.570948,0.426842 8.993008,3.432039 10.864108,7.383169 2.54831,5.381194 1.54724,11.461108 -2.56299,15.565918 -0.9398,0.93856 -2.32255,2.03935 -3.07279,2.44621 -2.59827,1.40905 -6.877488,1.88131 -9.837868,1.08572 z"
       id="path826"
       inkscape:connector-curvature="0" />
  </g>
</svg>
